<svg xmlns="http://www.w3.org/2000/svg" xmlns:xlink="http://www.w3.org/1999/xlink" x="0" y="0" width="448" height="437.1875" style="
        width:448px;
        height:437.1875px;
        background: transparent;
        fill: none;
">
        
        
        <svg xmlns="http://www.w3.org/2000/svg" class="role-diagram-draw-area"><g class="shapes-region" style="stroke: black; fill: none;"><g class="composite-shape"><path class="real" d=" M160.8,22.6 C160.8,16.11 166.07,10.84 172.56,10.84 L277.84,10.84 C284.33,10.84 289.6,16.11 289.6,22.6 L289.6,57.88 C289.6,64.37 284.33,69.64 277.84,69.64 L172.56,69.64 C166.07,69.64 160.8,64.37 160.8,57.88 Z" style="stroke-width: 1; stroke: rgb(0, 0, 0); stroke-opacity: 1; fill: rgb(255, 204, 203); fill-opacity: 0.7;"/></g><g class="arrow-line"><path class="connection real" stroke-dasharray="" d="  M225.25,69.65 L225.01,108.38" style="stroke: rgb(0, 0, 0); stroke-opacity: 1; stroke-width: 1; fill: none; fill-opacity: 1;"/><g stroke="rgb(0,0,0)" stroke-opacity="1" transform="matrix(0.006108614390678686,-0.9999813422410571,0.9999813422410571,0.006108614390678686,225.00000000000006,110.375)" style="stroke: rgb(0, 0, 0); stroke-width: 1;"><path d=" M7.65,-2.3 Q3.47,-0.31 0,0 Q3.47,0.32 7.65,2.3"/></g></g><g class="composite-shape"><path class="real" d=" M159.74,122.5 C159.74,115.91 165.08,110.57 171.67,110.57 L278.32,110.57 C284.9,110.57 290.24,115.91 290.24,122.5 L290.24,158.27 C290.24,164.86 284.9,170.2 278.32,170.2 L171.67,170.2 C165.08,170.2 159.74,164.86 159.74,158.27 Z" style="stroke-width: 1; stroke: rgb(0, 0, 0); stroke-opacity: 1; fill: rgb(193, 225, 236); fill-opacity: 0.7;"/></g><g class="composite-shape"><path class="real" d=" M300.4,222.06 C300.4,215.46 305.76,210.1 312.36,210.1 L418.94,210.1 C425.54,210.1 430.9,215.46 430.9,222.06 L430.9,257.95 C430.9,264.56 425.54,269.91 418.94,269.91 L312.36,269.91 C305.76,269.91 300.4,264.56 300.4,257.95 Z" style="stroke-width: 1; stroke: rgb(0, 0, 0); stroke-opacity: 1; fill: rgb(193, 225, 236); fill-opacity: 0.7;"/></g><g class="composite-shape"><path class="real" d=" M19.74,221.83 C19.74,215.21 25.11,209.84 31.73,209.84 L138.25,209.84 C144.87,209.84 150.24,215.21 150.24,221.83 L150.24,257.81 C150.24,264.43 144.87,269.8 138.25,269.8 L31.73,269.8 C25.11,269.8 19.74,264.43 19.74,257.81 Z" style="stroke-width: 1; stroke: rgb(74, 74, 74); stroke-opacity: 1; fill: rgb(193, 225, 236); fill-opacity: 0.7;"/></g><g class="composite-shape"><path class="real" d=" M160,322.72 C160,316.19 165.29,310.9 171.82,310.9 L278.68,310.9 C285.21,310.9 290.5,316.19 290.5,322.72 L290.5,358.18 C290.5,364.71 285.21,370 278.68,370 L171.82,370 C165.29,370 160,364.71 160,358.18 Z" style="stroke-width: 1; stroke: rgb(0, 0, 0); stroke-opacity: 1; fill: rgb(193, 225, 236); fill-opacity: 0.7;"/></g><g class="arrow-line"><path class="connection real" stroke-dasharray="" d="  M290.9,140.2 C330.3,140.2 364.85,168.34 365.64,208.04" style="stroke: rgb(0, 0, 0); stroke-opacity: 1; stroke-width: 1; fill: none; fill-opacity: 1;"/><g stroke="rgb(0,0,0)" stroke-opacity="1" transform="matrix(0.006108614390678686,-0.9999813422410571,0.9999813422410571,0.006108614390678686,365.65,209.86071428571427)" style="stroke: rgb(0, 0, 0); stroke-width: 1;"><path d=" M7.65,-2.3 Q3.47,-0.31 0,0 Q3.47,0.32 7.65,2.3"/></g></g><g class="arrow-line"><path class="connection real" stroke-dasharray="" d="  M365.61,269.91 C365.9,309.6 331.94,339.3 292.7,340.18" style="stroke: rgb(0, 0, 0); stroke-opacity: 1; stroke-width: 1; fill: none; fill-opacity: 1;"/><g stroke="rgb(0,0,0)" stroke-opacity="1" transform="matrix(1,-2.4492935982947064e-16,2.4492935982947064e-16,1,290.9,340.2)" style="stroke: rgb(0, 0, 0); stroke-width: 1;"><path d=" M7.65,-2.3 Q3.47,-0.31 0,0 Q3.47,0.32 7.65,2.3"/></g></g><g class="arrow-line"><path class="connection real" stroke-dasharray="" d="  M159.81,340.34 C120.7,340.2 86.15,311.09 84.85,271.86" style="stroke: rgb(0, 0, 0); stroke-opacity: 1; stroke-width: 1; fill: none; fill-opacity: 1;"/><g stroke="rgb(0,0,0)" stroke-opacity="1" transform="matrix(0.007155788862700713,0.9999743970151198,-0.9999743970151198,0.007155788862700713,84.81428571428575,270.0571428571428)" style="stroke: rgb(0, 0, 0); stroke-width: 1;"><path d=" M7.65,-3.43 Q3.47,-0.7 0,0 Q3.47,0.7 7.65,3.43"/></g></g><g class="arrow-line"><path class="connection real" stroke-dasharray="" d="  M85.24,209.97 C85.1,170.01 120.03,141.27 157.94,140.42" style="stroke: rgb(0, 0, 0); stroke-opacity: 1; stroke-width: 1; fill: none; fill-opacity: 1;"/><g stroke="rgb(0,0,0)" stroke-opacity="1" transform="matrix(-1,1.2246467991473532e-16,-1.2246467991473532e-16,-1,159.67142857142858,140.39999999999998)" style="stroke: rgb(0, 0, 0); stroke-width: 1;"><path d=" M7.65,-2.3 Q3.47,-0.31 0,0 Q3.47,0.32 7.65,2.3"/></g></g><g class="composite-shape"><path class="real" d=" M81.07,404.88 C81.07,402.6 82.92,400.75 85.2,400.75 L195.91,400.75 C198.19,400.75 200.04,402.6 200.04,404.88 L200.04,417.28 C200.04,419.57 198.19,421.42 195.91,421.42 L85.2,421.42 C82.92,421.42 81.07,419.57 81.07,417.28 Z" style="stroke-width: 1; stroke: rgb(0, 0, 0); stroke-opacity: 1; fill: rgb(255, 250, 205); fill-opacity: 0.7;"/></g><g class="composite-shape"><path class="real" d=" M251.07,405.02 C251.07,402.75 252.9,400.92 255.17,400.92 L365.94,400.92 C368.21,400.92 370.04,402.75 370.04,405.02 L370.04,417.32 C370.04,419.58 368.21,421.42 365.94,421.42 L255.17,421.42 C252.9,421.42 251.07,419.58 251.07,417.32 Z" style="stroke-width: 1; stroke: rgb(0, 0, 0); stroke-opacity: 1; fill: rgb(255, 250, 205); fill-opacity: 0.7;"/></g><g class="arrow-line"><path class="connection real" stroke-dasharray="1.125 3.35" d="  M225.51,370.94 L310.47,400.71" style="stroke: rgb(0, 0, 0); stroke-opacity: 1; stroke-width: 1; fill: none; fill-opacity: 1;"/></g><g class="arrow-line"><path class="connection real" stroke-dasharray="1.125 3.35" d="  M225.51,370.94 L140.76,400.57" style="stroke: rgb(0, 0, 0); stroke-opacity: 1; stroke-width: 1; fill: none; fill-opacity: 1;"/></g><g class="arrow-line"><path class="connection real" stroke-dasharray="" d="  M29.85,270.14 L29.61,308.87" style="stroke: rgb(0, 0, 0); stroke-opacity: 1; stroke-width: 1; fill: none; fill-opacity: 1;"/><g stroke="rgb(0,0,0)" stroke-opacity="1" transform="matrix(0.006108614390678686,-0.9999813422410571,0.9999813422410571,0.006108614390678686,29.598571428571404,310.8678571428572)" style="stroke: rgb(0, 0, 0); stroke-width: 1;"><path d=" M7.65,-2.3 Q3.47,-0.31 0,0 Q3.47,0.32 7.65,2.3"/></g></g><g class="composite-shape"><path class="real" d=" M8,315.83 C8,312.95 10.34,310.61 13.22,310.61 L46.43,310.61 C49.31,310.61 51.64,312.95 51.64,315.83 L51.64,331.48 C51.64,334.36 49.31,336.7 46.43,336.7 L13.22,336.7 C10.34,336.7 8,334.36 8,331.48 Z" style="stroke-width: 1; stroke: rgb(0, 0, 0); stroke-opacity: 1; fill: rgb(184, 224, 184); fill-opacity: 0.7;"/></g><g/></g><g/><g/><g/></svg>
        <svg xmlns="http://www.w3.org/2000/svg" xmlns:xlink="http://www.w3.org/1999/xlink" width="446" height="435.1875" style="width:446px;height:435.1875px;font-family:Asana-Math, Asana;background:transparent;"><g><g><g><g transform="matrix(1,0,0,1,201.4375,34.296875)"><path transform="matrix(0.0135,0,0,-0.0135,0,0)" d="M28 0C63 3 142 3 180 3C219 3 298 3 333 0L333 31L307 31C228 31 225 42 225 78L225 605C225 641 228 652 307 652L333 652L333 683C298 680 219 680 181 680C142 680 63 680 28 683L28 652L54 652C133 652 136 641 136 605L136 78C136 42 133 31 54 31L28 31ZM393 0C428 1 479 3 506 3C532 3 584 1 618 0L618 31C551 31 540 31 540 76L540 260C540 364 611 420 675 420C738 420 749 366 749 309L749 76C749 31 738 31 671 31L671 0C706 1 757 3 784 3C810 3 862 1 896 0L896 31C844 31 819 31 818 61L818 252C818 338 818 369 787 405C773 422 740 442 682 442C609 442 562 399 534 337L534 442L393 431L393 400C463 400 471 393 471 344L471 76C471 31 460 31 393 31ZM991 616C991 589 1013 563 1044 563C1072 563 1097 584 1097 616C1097 648 1072 669 1044 669C1013 669 991 642 991 616ZM949 0C981 1 1035 3 1059 3C1094 3 1129 1 1163 0L1163 31C1097 31 1093 36 1093 75L1093 442L953 431L953 400C1018 400 1027 394 1027 345L1027 76C1027 31 1016 31 949 31ZM1212 400L1297 400L1297 124C1297 1 1390 -11 1426 -11C1497 -11 1525 60 1525 124L1525 181L1500 181L1500 126C1500 52 1470 14 1433 14C1366 14 1366 105 1366 122L1366 400L1509 400L1509 431L1366 431L1366 615L1341 615C1340 533 1310 426 1212 422ZM1656 616C1656 589 1678 563 1709 563C1737 563 1762 584 1762 616C1762 648 1737 669 1709 669C1678 669 1656 642 1656 616ZM1614 0C1646 1 1700 3 1724 3C1759 3 1794 1 1828 0L1828 31C1762 31 1758 36 1758 75L1758 442L1618 431L1618 400C1683 400 1692 394 1692 345L1692 76C1692 31 1681 31 1614 31ZM1891 0C1924 1 1977 3 2002 3C2027 3 2076 1 2113 0L2113 31C2046 31 2035 31 2035 76L2035 694L1891 683L1891 652C1961 652 1969 645 1969 596L1969 76C1969 31 1958 31 1891 31ZM2210 616C2210 589 2232 563 2263 563C2291 563 2316 584 2316 616C2316 648 2291 669 2263 669C2232 669 2210 642 2210 616ZM2168 0C2200 1 2254 3 2278 3C2313 3 2348 1 2382 0L2382 31C2316 31 2312 36 2312 75L2312 442L2172 431L2172 400C2237 400 2246 394 2246 345L2246 76C2246 31 2235 31 2168 31ZM2440 14C2440 0 2447 0 2466 0L2796 0L2813 187L2788 187C2779 69 2758 25 2642 25L2524 25L2802 401C2811 412 2811 414 2811 418C2811 431 2803 431 2785 431L2465 431L2454 270L2479 270C2485 372 2504 409 2614 409L2728 409L2449 32C2440 21 2440 19 2440 14ZM2884 220C2884 86 2989 -11 3104 -11C3226 -11 3271 100 3271 119C3271 129 3263 131 3258 131C3249 131 3247 125 3245 117C3210 14 3120 14 3110 14C3060 14 3020 44 2997 81C2967 129 2967 195 2967 231L3246 231C3268 231 3271 231 3271 252C3271 351 3217 448 3092 448C2976 448 2884 345 2884 220ZM2968 252C2974 401 3058 426 3092 426C3195 426 3205 291 3205 252Z" stroke="rgb(0,0,0)" stroke-opacity="1" stroke-width="0" fill="rgb(0,0,0)" fill-opacity="1"></path></g></g><g><g transform="matrix(1,0,0,1,246,34.296875)"><path transform="matrix(0.0135,0,0,-0.0135,0,0)" d="" stroke="rgb(0,0,0)" stroke-opacity="1" stroke-width="0" fill="rgb(0,0,0)" fill-opacity="1"></path></g></g></g><g><g><g transform="matrix(1,0,0,1,194.1875,55.296875)"><path transform="matrix(0.0135,0,0,-0.0135,0,0)" d="M35 0C70 3 144 3 182 3C220 3 295 3 330 0L330 31L306 31C229 31 227 42 227 78L227 316L396 316C516 316 624 397 624 497C624 595 525 683 388 683L35 683L35 652L59 652C136 652 138 641 138 605L138 78C138 42 136 31 59 31L35 31ZM224 342L224 612C224 645 226 652 273 652L362 652C521 652 521 546 521 497C521 450 521 342 362 342ZM680 214C680 85 784 -11 901 -11C1022 -11 1123 87 1123 214C1123 342 1023 448 902 448C777 448 680 339 680 214ZM763 222C763 261 763 315 787 359C814 405 861 426 901 426C945 426 988 404 1014 361C1040 318 1040 260 1040 222C1040 186 1040 132 1018 88C996 43 952 14 902 14C859 14 815 35 788 81C763 125 763 186 763 222ZM1180 -163L1180 -194C1214 -193 1266 -191 1292 -191C1319 -191 1370 -193 1405 -194L1405 -163C1338 -163 1327 -163 1327 -118L1327 50L1327 59C1332 43 1374 -11 1450 -11C1569 -11 1673 87 1673 216C1673 343 1576 442 1464 442C1386 442 1344 398 1324 376L1324 442L1180 431L1180 400C1251 400 1258 394 1258 350L1258 -118C1258 -163 1247 -163 1180 -163ZM1327 114L1327 337C1356 388 1405 417 1456 417C1529 417 1590 329 1590 216C1590 95 1520 11 1446 11C1406 11 1368 31 1341 72C1327 93 1327 94 1327 114ZM1739 400C1817 400 1817 397 1817 308L1817 158C1817 80 1817 -11 1969 -11C2025 -11 2069 17 2098 79L2098 -11L2242 0L2242 31C2172 31 2164 38 2164 87L2164 442L2017 431L2017 400C2087 400 2095 393 2095 344L2095 166C2095 79 2047 11 1974 11C1890 11 1886 58 1886 110L1886 442L1739 431ZM2295 0C2328 1 2381 3 2406 3C2431 3 2480 1 2517 0L2517 31C2450 31 2439 31 2439 76L2439 694L2295 683L2295 652C2365 652 2373 645 2373 596L2373 76C2373 31 2362 31 2295 31ZM2581 95C2581 14 2678 -11 2741 -11C2807 -11 2853 29 2872 76C2876 36 2903 -6 2950 -6C2971 -6 3032 8 3032 89L3032 145L3007 145L3007 89C3007 31 2982 25 2971 25C2938 25 2934 70 2934 75L2934 275C2934 317 2934 356 2898 393C2859 432 2809 448 2761 448C2679 448 2610 401 2610 335C2610 305 2630 288 2656 288C2684 288 2702 308 2702 334C2702 346 2697 379 2651 380C2678 415 2727 426 2759 426C2808 426 2865 387 2865 298L2865 261C2814 258 2744 255 2681 225C2606 191 2581 139 2581 95ZM2658 96C2658 151 2700 234 2865 240L2865 140C2865 45 2793 11 2748 11C2699 11 2658 46 2658 96ZM3058 400L3143 400L3143 124C3143 1 3236 -11 3272 -11C3343 -11 3371 60 3371 124L3371 181L3346 181L3346 126C3346 52 3316 14 3279 14C3212 14 3212 105 3212 122L3212 400L3355 400L3355 431L3212 431L3212 615L3187 615C3186 533 3156 426 3058 422ZM3502 616C3502 589 3524 563 3555 563C3583 563 3608 584 3608 616C3608 648 3583 669 3555 669C3524 669 3502 642 3502 616ZM3460 0C3492 1 3546 3 3570 3C3605 3 3640 1 3674 0L3674 31C3608 31 3604 36 3604 75L3604 442L3464 431L3464 400C3529 400 3538 394 3538 345L3538 76C3538 31 3527 31 3460 31ZM3732 214C3732 85 3836 -11 3953 -11C4074 -11 4175 87 4175 214C4175 342 4075 448 3954 448C3829 448 3732 339 3732 214ZM3815 222C3815 261 3815 315 3839 359C3866 405 3913 426 3953 426C3997 426 4040 404 4066 361C4092 318 4092 260 4092 222C4092 186 4092 132 4070 88C4048 43 4004 14 3954 14C3911 14 3867 35 3840 81C3815 125 3815 186 3815 222ZM4236 0C4271 1 4322 3 4349 3C4375 3 4427 1 4461 0L4461 31C4394 31 4383 31 4383 76L4383 260C4383 364 4454 420 4518 420C4581 420 4592 366 4592 309L4592 76C4592 31 4581 31 4514 31L4514 0C4549 1 4600 3 4627 3C4653 3 4705 1 4739 0L4739 31C4687 31 4662 31 4661 61L4661 252C4661 338 4661 369 4630 405C4616 422 4583 442 4525 442C4452 442 4405 399 4377 337L4377 442L4236 431L4236 400C4306 400 4314 393 4314 344L4314 76C4314 31 4303 31 4236 31Z" stroke="rgb(0,0,0)" stroke-opacity="1" stroke-width="0" fill="rgb(0,0,0)" fill-opacity="1"></path></g></g></g></g><g><g><g><g transform="matrix(1,0,0,1,197.140625,133.796875)"><path transform="matrix(0.0135,0,0,-0.0135,0,0)" d="M33 0L610 0L652 258L627 258C602 104 579 31 407 31L274 31C227 31 225 38 225 71L225 338L315 338C412 338 423 306 423 221L448 221L448 486L423 486C423 400 412 369 315 369L225 369L225 609C225 642 227 649 274 649L403 649C556 649 583 594 599 455L624 455L596 680L33 680L33 649L57 649C134 649 136 638 136 602L136 78C136 42 134 31 57 31L33 31ZM699 400C762 400 766 394 779 363L923 8C929 -6 931 -11 944 -11C957 -11 961 -2 965 8L1096 333C1105 356 1122 399 1188 400L1188 431C1165 429 1136 428 1113 428C1089 428 1043 430 1026 431L1026 400C1063 399 1074 376 1074 357C1074 348 1072 344 1068 333L966 78L854 357C848 370 848 372 848 374C848 400 887 400 905 400L905 431C875 430 819 428 796 428C769 428 729 429 699 431ZM1221 95C1221 14 1318 -11 1381 -11C1447 -11 1493 29 1512 76C1516 36 1543 -6 1590 -6C1611 -6 1672 8 1672 89L1672 145L1647 145L1647 89C1647 31 1622 25 1611 25C1578 25 1574 70 1574 75L1574 275C1574 317 1574 356 1538 393C1499 432 1449 448 1401 448C1319 448 1250 401 1250 335C1250 305 1270 288 1296 288C1324 288 1342 308 1342 334C1342 346 1337 379 1291 380C1318 415 1367 426 1399 426C1448 426 1505 387 1505 298L1505 261C1454 258 1384 255 1321 225C1246 191 1221 139 1221 95ZM1298 96C1298 151 1340 234 1505 240L1505 140C1505 45 1433 11 1388 11C1339 11 1298 46 1298 96ZM1712 0C1745 1 1798 3 1823 3C1848 3 1897 1 1934 0L1934 31C1867 31 1856 31 1856 76L1856 694L1712 683L1712 652C1782 652 1790 645 1790 596L1790 76C1790 31 1779 31 1712 31ZM1988 400C2066 400 2066 397 2066 308L2066 158C2066 80 2066 -11 2218 -11C2274 -11 2318 17 2347 79L2347 -11L2491 0L2491 31C2421 31 2413 38 2413 87L2413 442L2266 431L2266 400C2336 400 2344 393 2344 344L2344 166C2344 79 2296 11 2223 11C2139 11 2135 58 2135 110L2135 442L1988 431ZM2553 95C2553 14 2650 -11 2713 -11C2779 -11 2825 29 2844 76C2848 36 2875 -6 2922 -6C2943 -6 3004 8 3004 89L3004 145L2979 145L2979 89C2979 31 2954 25 2943 25C2910 25 2906 70 2906 75L2906 275C2906 317 2906 356 2870 393C2831 432 2781 448 2733 448C2651 448 2582 401 2582 335C2582 305 2602 288 2628 288C2656 288 2674 308 2674 334C2674 346 2669 379 2623 380C2650 415 2699 426 2731 426C2780 426 2837 387 2837 298L2837 261C2786 258 2716 255 2653 225C2578 191 2553 139 2553 95ZM2630 96C2630 151 2672 234 2837 240L2837 140C2837 45 2765 11 2720 11C2671 11 2630 46 2630 96ZM3030 400L3115 400L3115 124C3115 1 3208 -11 3244 -11C3315 -11 3343 60 3343 124L3343 181L3318 181L3318 126C3318 52 3288 14 3251 14C3184 14 3184 105 3184 122L3184 400L3327 400L3327 431L3184 431L3184 615L3159 615C3158 533 3128 426 3030 422ZM3427 220C3427 86 3532 -11 3647 -11C3769 -11 3814 100 3814 119C3814 129 3806 131 3801 131C3792 131 3790 125 3788 117C3753 14 3663 14 3653 14C3603 14 3563 44 3540 81C3510 129 3510 195 3510 231L3789 231C3811 231 3814 231 3814 252C3814 351 3760 448 3635 448C3519 448 3427 345 3427 220ZM3511 252C3517 401 3601 426 3635 426C3738 426 3748 291 3748 252Z" stroke="rgb(0,0,0)" stroke-opacity="1" stroke-width="0" fill="rgb(0,0,0)" fill-opacity="1"></path></g></g></g><g><g><g transform="matrix(1,0,0,1,204.375,154.796875)"><path transform="matrix(0.0135,0,0,-0.0135,0,0)" d="M33 0C68 3 146 3 185 3C226 3 317 3 353 0L353 31L320 31C225 31 225 44 225 79L225 325L311 325C407 325 417 293 417 208L442 208L442 473L417 473C417 389 407 356 311 356L225 356L225 609C225 642 227 649 274 649L394 649C544 649 569 593 585 455L610 455L582 680L33 680L33 649L57 649C134 649 136 638 136 602L136 78C136 42 134 31 57 31L33 31ZM727 616C727 589 749 563 780 563C808 563 833 584 833 616C833 648 808 669 780 669C749 669 727 642 727 616ZM685 0C717 1 771 3 795 3C830 3 865 1 899 0L899 31C833 31 829 36 829 75L829 442L689 431L689 400C754 400 763 394 763 345L763 76C763 31 752 31 685 31ZM948 400L1033 400L1033 124C1033 1 1126 -11 1162 -11C1233 -11 1261 60 1261 124L1261 181L1236 181L1236 126C1236 52 1206 14 1169 14C1102 14 1102 105 1102 122L1102 400L1245 400L1245 431L1102 431L1102 615L1077 615C1076 533 1046 426 948 422ZM1349 0C1384 1 1435 3 1462 3C1488 3 1540 1 1574 0L1574 31C1507 31 1496 31 1496 76L1496 260C1496 364 1567 420 1631 420C1694 420 1705 366 1705 309L1705 76C1705 31 1694 31 1627 31L1627 0C1662 1 1713 3 1740 3C1766 3 1818 1 1852 0L1852 31C1800 31 1775 31 1774 61L1774 252C1774 338 1774 369 1743 405C1729 422 1696 442 1638 442C1565 442 1518 399 1490 337L1490 442L1349 431L1349 400C1419 400 1427 393 1427 344L1427 76C1427 31 1416 31 1349 31ZM1900 220C1900 86 2005 -11 2120 -11C2242 -11 2287 100 2287 119C2287 129 2279 131 2274 131C2265 131 2263 125 2261 117C2226 14 2136 14 2126 14C2076 14 2036 44 2013 81C1983 129 1983 195 1983 231L2262 231C2284 231 2287 231 2287 252C2287 351 2233 448 2108 448C1992 448 1900 345 1900 220ZM1984 252C1990 401 2074 426 2108 426C2211 426 2221 291 2221 252ZM2349 13C2349 -4 2349 -11 2360 -11C2365 -11 2366 -10 2385 9C2387 11 2387 13 2405 32C2449 -10 2494 -11 2515 -11C2630 -11 2676 56 2676 128C2676 181 2646 211 2634 223C2601 255 2562 263 2520 271C2464 282 2397 295 2397 353C2397 388 2423 429 2509 429C2619 429 2624 339 2626 308C2627 299 2636 299 2638 299C2651 299 2651 304 2651 323L2651 424C2651 441 2651 448 2640 448C2635 448 2633 448 2620 436C2617 432 2607 423 2603 420C2565 448 2524 448 2509 448C2387 448 2349 381 2349 325C2349 290 2365 262 2392 240C2424 214 2452 208 2524 194C2546 190 2628 174 2628 102C2628 51 2593 11 2515 11C2431 11 2395 68 2376 153C2373 166 2372 170 2362 170C2349 170 2349 163 2349 145ZM2743 13C2743 -4 2743 -11 2754 -11C2759 -11 2760 -10 2779 9C2781 11 2781 13 2799 32C2843 -10 2888 -11 2909 -11C3024 -11 3070 56 3070 128C3070 181 3040 211 3028 223C2995 255 2956 263 2914 271C2858 282 2791 295 2791 353C2791 388 2817 429 2903 429C3013 429 3018 339 3020 308C3021 299 3030 299 3032 299C3045 299 3045 304 3045 323L3045 424C3045 441 3045 448 3034 448C3029 448 3027 448 3014 436C3011 432 3001 423 2997 420C2959 448 2918 448 2903 448C2781 448 2743 381 2743 325C2743 290 2759 262 2786 240C2818 214 2846 208 2918 194C2940 190 3022 174 3022 102C3022 51 2987 11 2909 11C2825 11 2789 68 2770 153C2767 166 2766 170 2756 170C2743 170 2743 163 2743 145Z" stroke="rgb(0,0,0)" stroke-opacity="1" stroke-width="0" fill="rgb(0,0,0)" fill-opacity="1"></path></g></g></g></g><g><g><g><g transform="matrix(1,0,0,1,340,245.09375)"><path transform="matrix(0.0135,0,0,-0.0135,0,0)" d="M56 2C56 -15 56 -22 67 -22C74 -22 75 -20 82 -9C82 -8 85 -5 118 48C149 14 213 -22 302 -22C419 -22 499 76 499 186C499 286 433 368 349 388L221 419C159 434 120 488 120 546C120 616 174 677 252 677C419 677 441 513 447 468C448 462 448 456 459 456C472 456 472 461 472 480L472 681C472 698 472 705 461 705C454 705 453 704 446 692L411 635C381 664 340 705 251 705C140 705 56 617 56 511C56 428 109 355 187 328C198 324 249 312 319 295C346 288 376 281 404 244C425 218 435 185 435 152C435 81 385 9 301 9C272 9 196 14 143 63C85 117 82 181 81 217C80 227 72 227 69 227C56 227 56 220 56 202ZM583 220C583 86 688 -11 803 -11C925 -11 970 100 970 119C970 129 962 131 957 131C948 131 946 125 944 117C909 14 819 14 809 14C759 14 719 44 696 81C666 129 666 195 666 231L945 231C967 231 970 231 970 252C970 351 916 448 791 448C675 448 583 345 583 220ZM667 252C673 401 757 426 791 426C894 426 904 291 904 252ZM1032 0C1065 1 1118 3 1143 3C1168 3 1217 1 1254 0L1254 31C1187 31 1176 31 1176 76L1176 694L1032 683L1032 652C1102 652 1110 645 1110 596L1110 76C1110 31 1099 31 1032 31ZM1304 220C1304 86 1409 -11 1524 -11C1646 -11 1691 100 1691 119C1691 129 1683 131 1678 131C1669 131 1667 125 1665 117C1630 14 1540 14 1530 14C1480 14 1440 44 1417 81C1387 129 1387 195 1387 231L1666 231C1688 231 1691 231 1691 252C1691 351 1637 448 1512 448C1396 448 1304 345 1304 220ZM1388 252C1394 401 1478 426 1512 426C1615 426 1625 291 1625 252ZM1754 216C1754 88 1853 -11 1969 -11C2103 -11 2135 109 2135 119C2135 129 2125 129 2122 129C2113 129 2111 125 2109 119C2080 26 2015 14 1978 14C1925 14 1837 57 1837 218C1837 381 1919 423 1972 423C1981 423 2044 422 2079 386C2038 383 2032 353 2032 340C2032 314 2050 294 2078 294C2104 294 2124 311 2124 341C2124 409 2048 448 1971 448C1846 448 1754 340 1754 216ZM2183 400L2268 400L2268 124C2268 1 2361 -11 2397 -11C2468 -11 2496 60 2496 124L2496 181L2471 181L2471 126C2471 52 2441 14 2404 14C2337 14 2337 105 2337 122L2337 400L2480 400L2480 431L2337 431L2337 615L2312 615C2311 533 2281 426 2183 422ZM2627 616C2627 589 2649 563 2680 563C2708 563 2733 584 2733 616C2733 648 2708 669 2680 669C2649 669 2627 642 2627 616ZM2585 0C2617 1 2671 3 2695 3C2730 3 2765 1 2799 0L2799 31C2733 31 2729 36 2729 75L2729 442L2589 431L2589 400C2654 400 2663 394 2663 345L2663 76C2663 31 2652 31 2585 31ZM2857 214C2857 85 2961 -11 3078 -11C3199 -11 3300 87 3300 214C3300 342 3200 448 3079 448C2954 448 2857 339 2857 214ZM2940 222C2940 261 2940 315 2964 359C2991 405 3038 426 3078 426C3122 426 3165 404 3191 361C3217 318 3217 260 3217 222C3217 186 3217 132 3195 88C3173 43 3129 14 3079 14C3036 14 2992 35 2965 81C2940 125 2940 186 2940 222ZM3361 0C3396 1 3447 3 3474 3C3500 3 3552 1 3586 0L3586 31C3519 31 3508 31 3508 76L3508 260C3508 364 3579 420 3643 420C3706 420 3717 366 3717 309L3717 76C3717 31 3706 31 3639 31L3639 0C3674 1 3725 3 3752 3C3778 3 3830 1 3864 0L3864 31C3812 31 3787 31 3786 61L3786 252C3786 338 3786 369 3755 405C3741 422 3708 442 3650 442C3577 442 3530 399 3502 337L3502 442L3361 431L3361 400C3431 400 3439 393 3439 344L3439 76C3439 31 3428 31 3361 31Z" stroke="rgb(0,0,0)" stroke-opacity="1" stroke-width="0" fill="rgb(0,0,0)" fill-opacity="1"></path></g></g></g></g><g><g><g><g transform="matrix(1,0,0,1,194.1875,335.296875)"><path transform="matrix(0.0135,0,0,-0.0135,0,0)" d="M36 0L428 0C561 0 651 89 651 183C651 270 569 345 458 357C555 376 624 440 624 514C624 601 532 683 402 683L36 683L36 652L60 652C137 652 139 641 139 605L139 78C139 42 137 31 60 31L36 31ZM222 71L222 344L410 344C509 344 551 251 551 184C551 113 499 31 396 31L271 31C224 31 222 38 222 71ZM222 366L222 612C222 645 224 652 271 652L395 652C492 652 527 567 527 514C527 450 478 366 367 366ZM736 0C775 1 822 3 850 3C890 3 937 3 977 0L977 31L956 31C882 31 880 42 880 78L880 232C880 331 922 420 998 420C1005 420 1007 420 1009 419C1006 418 986 406 986 380C986 352 1007 337 1029 337C1047 337 1072 349 1072 381C1072 413 1041 442 998 442C925 442 889 375 875 332L875 442L736 431L736 400C806 400 814 393 814 344L814 76C814 31 803 31 736 31ZM1127 220C1127 86 1232 -11 1347 -11C1469 -11 1514 100 1514 119C1514 129 1506 131 1501 131C1492 131 1490 125 1488 117C1453 14 1363 14 1353 14C1303 14 1263 44 1240 81C1210 129 1210 195 1210 231L1489 231C1511 231 1514 231 1514 252C1514 351 1460 448 1335 448C1219 448 1127 345 1127 220ZM1211 252C1217 401 1301 426 1335 426C1438 426 1448 291 1448 252ZM1571 220C1571 86 1676 -11 1791 -11C1913 -11 1958 100 1958 119C1958 129 1950 131 1945 131C1936 131 1934 125 1932 117C1897 14 1807 14 1797 14C1747 14 1707 44 1684 81C1654 129 1654 195 1654 231L1933 231C1955 231 1958 231 1958 252C1958 351 1904 448 1779 448C1663 448 1571 345 1571 220ZM1655 252C1661 401 1745 426 1779 426C1882 426 1892 291 1892 252ZM2021 215C2021 88 2119 -11 2233 -11C2297 -11 2342 23 2367 55L2367 -11L2514 0L2514 31C2444 31 2436 38 2436 87L2436 694L2292 683L2292 652C2362 652 2370 645 2370 596L2370 380C2341 416 2298 442 2244 442C2126 442 2021 344 2021 215ZM2104 214C2104 251 2106 311 2135 356C2156 387 2194 420 2248 420C2283 420 2325 405 2356 360C2367 343 2367 341 2367 323L2367 118C2367 100 2367 98 2356 81C2326 33 2281 11 2238 11C2193 11 2157 37 2133 75C2107 116 2104 173 2104 214ZM2908 0C2943 1 2992 3 3025 3C3058 3 3107 1 3142 0L3142 31C3039 31 3039 78 3039 105L3039 625C3044 620 3045 619 3049 613L3457 13C3466 1 3467 0 3474 0C3488 0 3488 7 3488 26L3488 578C3488 605 3488 652 3591 652L3591 683C3556 682 3507 680 3474 680C3441 680 3392 682 3357 683L3357 652C3460 652 3460 605 3460 578L3460 151L3107 670C3098 682 3097 683 3078 683L2908 683L2908 652L2937 652C2952 652 2972 651 2987 650C3010 647 3011 646 3011 627L3011 105C3011 78 3011 31 2908 31ZM3653 220C3653 86 3758 -11 3873 -11C3995 -11 4040 100 4040 119C4040 129 4032 131 4027 131C4018 131 4016 125 4014 117C3979 14 3889 14 3879 14C3829 14 3789 44 3766 81C3736 129 3736 195 3736 231L4015 231C4037 231 4040 231 4040 252C4040 351 3986 448 3861 448C3745 448 3653 345 3653 220ZM3737 252C3743 401 3827 426 3861 426C3964 426 3974 291 3974 252ZM4087 400C4137 400 4149 397 4161 365L4287 11C4292 -3 4295 -11 4308 -11C4321 -11 4323 -5 4328 9L4429 292L4531 8C4535 -3 4538 -11 4551 -11C4564 -11 4567 -2 4571 8L4688 336C4706 386 4737 399 4772 400L4772 431C4750 429 4721 428 4699 428C4670 428 4625 430 4606 431L4606 400C4642 399 4664 381 4664 352C4664 346 4664 344 4659 331L4568 75L4469 354C4465 366 4464 368 4464 373C4464 400 4503 400 4523 400L4523 431C4494 430 4443 428 4419 428C4389 428 4360 429 4330 431L4330 400C4367 400 4383 398 4393 385C4398 379 4409 349 4416 330L4330 88L4235 355C4230 367 4230 369 4230 373C4230 400 4269 400 4289 400L4289 431C4259 430 4203 428 4180 428C4176 428 4123 429 4087 431Z" stroke="rgb(0,0,0)" stroke-opacity="1" stroke-width="0" fill="rgb(0,0,0)" fill-opacity="1"></path></g></g></g><g><g><g transform="matrix(1,0,0,1,194.1875,356.296875)"><path transform="matrix(0.0135,0,0,-0.0135,0,0)" d="M35 0C70 3 144 3 182 3C220 3 295 3 330 0L330 31L306 31C229 31 227 42 227 78L227 316L396 316C516 316 624 397 624 497C624 595 525 683 388 683L35 683L35 652L59 652C136 652 138 641 138 605L138 78C138 42 136 31 59 31L35 31ZM224 342L224 612C224 645 226 652 273 652L362 652C521 652 521 546 521 497C521 450 521 342 362 342ZM680 214C680 85 784 -11 901 -11C1022 -11 1123 87 1123 214C1123 342 1023 448 902 448C777 448 680 339 680 214ZM763 222C763 261 763 315 787 359C814 405 861 426 901 426C945 426 988 404 1014 361C1040 318 1040 260 1040 222C1040 186 1040 132 1018 88C996 43 952 14 902 14C859 14 815 35 788 81C763 125 763 186 763 222ZM1180 -163L1180 -194C1214 -193 1266 -191 1292 -191C1319 -191 1370 -193 1405 -194L1405 -163C1338 -163 1327 -163 1327 -118L1327 50L1327 59C1332 43 1374 -11 1450 -11C1569 -11 1673 87 1673 216C1673 343 1576 442 1464 442C1386 442 1344 398 1324 376L1324 442L1180 431L1180 400C1251 400 1258 394 1258 350L1258 -118C1258 -163 1247 -163 1180 -163ZM1327 114L1327 337C1356 388 1405 417 1456 417C1529 417 1590 329 1590 216C1590 95 1520 11 1446 11C1406 11 1368 31 1341 72C1327 93 1327 94 1327 114ZM1739 400C1817 400 1817 397 1817 308L1817 158C1817 80 1817 -11 1969 -11C2025 -11 2069 17 2098 79L2098 -11L2242 0L2242 31C2172 31 2164 38 2164 87L2164 442L2017 431L2017 400C2087 400 2095 393 2095 344L2095 166C2095 79 2047 11 1974 11C1890 11 1886 58 1886 110L1886 442L1739 431ZM2295 0C2328 1 2381 3 2406 3C2431 3 2480 1 2517 0L2517 31C2450 31 2439 31 2439 76L2439 694L2295 683L2295 652C2365 652 2373 645 2373 596L2373 76C2373 31 2362 31 2295 31ZM2581 95C2581 14 2678 -11 2741 -11C2807 -11 2853 29 2872 76C2876 36 2903 -6 2950 -6C2971 -6 3032 8 3032 89L3032 145L3007 145L3007 89C3007 31 2982 25 2971 25C2938 25 2934 70 2934 75L2934 275C2934 317 2934 356 2898 393C2859 432 2809 448 2761 448C2679 448 2610 401 2610 335C2610 305 2630 288 2656 288C2684 288 2702 308 2702 334C2702 346 2697 379 2651 380C2678 415 2727 426 2759 426C2808 426 2865 387 2865 298L2865 261C2814 258 2744 255 2681 225C2606 191 2581 139 2581 95ZM2658 96C2658 151 2700 234 2865 240L2865 140C2865 45 2793 11 2748 11C2699 11 2658 46 2658 96ZM3058 400L3143 400L3143 124C3143 1 3236 -11 3272 -11C3343 -11 3371 60 3371 124L3371 181L3346 181L3346 126C3346 52 3316 14 3279 14C3212 14 3212 105 3212 122L3212 400L3355 400L3355 431L3212 431L3212 615L3187 615C3186 533 3156 426 3058 422ZM3502 616C3502 589 3524 563 3555 563C3583 563 3608 584 3608 616C3608 648 3583 669 3555 669C3524 669 3502 642 3502 616ZM3460 0C3492 1 3546 3 3570 3C3605 3 3640 1 3674 0L3674 31C3608 31 3604 36 3604 75L3604 442L3464 431L3464 400C3529 400 3538 394 3538 345L3538 76C3538 31 3527 31 3460 31ZM3732 214C3732 85 3836 -11 3953 -11C4074 -11 4175 87 4175 214C4175 342 4075 448 3954 448C3829 448 3732 339 3732 214ZM3815 222C3815 261 3815 315 3839 359C3866 405 3913 426 3953 426C3997 426 4040 404 4066 361C4092 318 4092 260 4092 222C4092 186 4092 132 4070 88C4048 43 4004 14 3954 14C3911 14 3867 35 3840 81C3815 125 3815 186 3815 222ZM4236 0C4271 1 4322 3 4349 3C4375 3 4427 1 4461 0L4461 31C4394 31 4383 31 4383 76L4383 260C4383 364 4454 420 4518 420C4581 420 4592 366 4592 309L4592 76C4592 31 4581 31 4514 31L4514 0C4549 1 4600 3 4627 3C4653 3 4705 1 4739 0L4739 31C4687 31 4662 31 4661 61L4661 252C4661 338 4661 369 4630 405C4616 422 4583 442 4525 442C4452 442 4405 399 4377 337L4377 442L4236 431L4236 400C4306 400 4314 393 4314 344L4314 76C4314 31 4303 31 4236 31Z" stroke="rgb(0,0,0)" stroke-opacity="1" stroke-width="0" fill="rgb(0,0,0)" fill-opacity="1"></path></g></g></g></g><g><g><g><g transform="matrix(1,0,0,1,282.390625,416.296875)"><path transform="matrix(0.0135,0,0,-0.0135,0,0)" d="M37 0C72 1 121 3 154 3C187 3 236 1 271 0L271 31C168 31 168 78 168 105L168 644L169 644L410 22C415 9 420 0 430 0C441 0 444 8 448 19L694 652L695 652L695 78C695 42 693 31 616 31L592 31L592 0C629 3 697 3 736 3C775 3 842 3 879 0L879 31L855 31C778 31 776 42 776 78L776 605C776 641 778 652 855 652L879 652L879 683L710 683C684 683 684 682 677 664L458 101L241 661C232 683 229 683 206 683L37 683L37 652L61 652C138 652 140 641 140 605L140 105C140 78 140 31 37 31ZM948 400C1026 400 1026 397 1026 308L1026 158C1026 80 1026 -11 1178 -11C1234 -11 1278 17 1307 79L1307 -11L1451 0L1451 31C1381 31 1373 38 1373 87L1373 442L1226 431L1226 400C1296 400 1304 393 1304 344L1304 166C1304 79 1256 11 1183 11C1099 11 1095 58 1095 110L1095 442L948 431ZM1490 400L1575 400L1575 124C1575 1 1668 -11 1704 -11C1775 -11 1803 60 1803 124L1803 181L1778 181L1778 126C1778 52 1748 14 1711 14C1644 14 1644 105 1644 122L1644 400L1787 400L1787 431L1644 431L1644 615L1619 615C1618 533 1588 426 1490 422ZM1901 95C1901 14 1998 -11 2061 -11C2127 -11 2173 29 2192 76C2196 36 2223 -6 2270 -6C2291 -6 2352 8 2352 89L2352 145L2327 145L2327 89C2327 31 2302 25 2291 25C2258 25 2254 70 2254 75L2254 275C2254 317 2254 356 2218 393C2179 432 2129 448 2081 448C1999 448 1930 401 1930 335C1930 305 1950 288 1976 288C2004 288 2022 308 2022 334C2022 346 2017 379 1971 380C1998 415 2047 426 2079 426C2128 426 2185 387 2185 298L2185 261C2134 258 2064 255 2001 225C1926 191 1901 139 1901 95ZM1978 96C1978 151 2020 234 2185 240L2185 140C2185 45 2113 11 2068 11C2019 11 1978 46 1978 96ZM2378 400L2463 400L2463 124C2463 1 2556 -11 2592 -11C2663 -11 2691 60 2691 124L2691 181L2666 181L2666 126C2666 52 2636 14 2599 14C2532 14 2532 105 2532 122L2532 400L2675 400L2675 431L2532 431L2532 615L2507 615C2506 533 2476 426 2378 422ZM2822 616C2822 589 2844 563 2875 563C2903 563 2928 584 2928 616C2928 648 2903 669 2875 669C2844 669 2822 642 2822 616ZM2780 0C2812 1 2866 3 2890 3C2925 3 2960 1 2994 0L2994 31C2928 31 2924 36 2924 75L2924 442L2784 431L2784 400C2849 400 2858 394 2858 345L2858 76C2858 31 2847 31 2780 31ZM3052 214C3052 85 3156 -11 3273 -11C3394 -11 3495 87 3495 214C3495 342 3395 448 3274 448C3149 448 3052 339 3052 214ZM3135 222C3135 261 3135 315 3159 359C3186 405 3233 426 3273 426C3317 426 3360 404 3386 361C3412 318 3412 260 3412 222C3412 186 3412 132 3390 88C3368 43 3324 14 3274 14C3231 14 3187 35 3160 81C3135 125 3135 186 3135 222ZM3556 0C3591 1 3642 3 3669 3C3695 3 3747 1 3781 0L3781 31C3714 31 3703 31 3703 76L3703 260C3703 364 3774 420 3838 420C3901 420 3912 366 3912 309L3912 76C3912 31 3901 31 3834 31L3834 0C3869 1 3920 3 3947 3C3973 3 4025 1 4059 0L4059 31C4007 31 3982 31 3981 61L3981 252C3981 338 3981 369 3950 405C3936 422 3903 442 3845 442C3772 442 3725 399 3697 337L3697 442L3556 431L3556 400C3626 400 3634 393 3634 344L3634 76C3634 31 3623 31 3556 31Z" stroke="rgb(0,0,0)" stroke-opacity="1" stroke-width="0" fill="rgb(0,0,0)" fill-opacity="1"></path></g></g></g></g><g><g><g><g transform="matrix(1,0,0,1,114.796875,416.296875)"><path transform="matrix(0.0135,0,0,-0.0135,0,0)" d="M56 342C56 135 218 -22 404 -22C567 -22 665 117 665 233C665 243 665 250 652 250C641 250 641 244 640 234C632 91 525 9 416 9C355 9 159 43 159 341C159 640 354 674 415 674C524 674 613 583 633 437C635 423 635 420 649 420C665 420 665 423 665 444L665 681C665 698 665 705 654 705C650 705 646 705 638 693L588 619C551 655 500 705 404 705C217 705 56 546 56 342ZM750 0C789 1 836 3 864 3C904 3 951 3 991 0L991 31L970 31C896 31 894 42 894 78L894 232C894 331 936 420 1012 420C1019 420 1021 420 1023 419C1020 418 1000 406 1000 380C1000 352 1021 337 1043 337C1061 337 1086 349 1086 381C1086 413 1055 442 1012 442C939 442 903 375 889 332L889 442L750 431L750 400C820 400 828 393 828 344L828 76C828 31 817 31 750 31ZM1141 214C1141 85 1245 -11 1362 -11C1483 -11 1584 87 1584 214C1584 342 1484 448 1363 448C1238 448 1141 339 1141 214ZM1224 222C1224 261 1224 315 1248 359C1275 405 1322 426 1362 426C1406 426 1449 404 1475 361C1501 318 1501 260 1501 222C1501 186 1501 132 1479 88C1457 43 1413 14 1363 14C1320 14 1276 35 1249 81C1224 125 1224 186 1224 222ZM1646 13C1646 -4 1646 -11 1657 -11C1662 -11 1663 -10 1682 9C1684 11 1684 13 1702 32C1746 -10 1791 -11 1812 -11C1927 -11 1973 56 1973 128C1973 181 1943 211 1931 223C1898 255 1859 263 1817 271C1761 282 1694 295 1694 353C1694 388 1720 429 1806 429C1916 429 1921 339 1923 308C1924 299 1933 299 1935 299C1948 299 1948 304 1948 323L1948 424C1948 441 1948 448 1937 448C1932 448 1930 448 1917 436C1914 432 1904 423 1900 420C1862 448 1821 448 1806 448C1684 448 1646 381 1646 325C1646 290 1662 262 1689 240C1721 214 1749 208 1821 194C1843 190 1925 174 1925 102C1925 51 1890 11 1812 11C1728 11 1692 68 1673 153C1670 166 1669 170 1659 170C1646 170 1646 163 1646 145ZM2040 13C2040 -4 2040 -11 2051 -11C2056 -11 2057 -10 2076 9C2078 11 2078 13 2096 32C2140 -10 2185 -11 2206 -11C2321 -11 2367 56 2367 128C2367 181 2337 211 2325 223C2292 255 2253 263 2211 271C2155 282 2088 295 2088 353C2088 388 2114 429 2200 429C2310 429 2315 339 2317 308C2318 299 2327 299 2329 299C2342 299 2342 304 2342 323L2342 424C2342 441 2342 448 2331 448C2326 448 2324 448 2311 436C2308 432 2298 423 2294 420C2256 448 2215 448 2200 448C2078 448 2040 381 2040 325C2040 290 2056 262 2083 240C2115 214 2143 208 2215 194C2237 190 2319 174 2319 102C2319 51 2284 11 2206 11C2122 11 2086 68 2067 153C2064 166 2063 170 2053 170C2040 170 2040 163 2040 145ZM2429 214C2429 85 2533 -11 2650 -11C2771 -11 2872 87 2872 214C2872 342 2772 448 2651 448C2526 448 2429 339 2429 214ZM2512 222C2512 261 2512 315 2536 359C2563 405 2610 426 2650 426C2694 426 2737 404 2763 361C2789 318 2789 260 2789 222C2789 186 2789 132 2767 88C2745 43 2701 14 2651 14C2608 14 2564 35 2537 81C2512 125 2512 186 2512 222ZM2892 400C2955 400 2959 394 2972 363L3116 8C3122 -6 3124 -11 3137 -11C3150 -11 3154 -2 3158 8L3289 333C3298 356 3315 399 3381 400L3381 431C3358 429 3329 428 3306 428C3282 428 3236 430 3219 431L3219 400C3256 399 3267 376 3267 357C3267 348 3265 344 3261 333L3159 78L3047 357C3041 370 3041 372 3041 374C3041 400 3080 400 3098 400L3098 431C3068 430 3012 428 2989 428C2962 428 2922 429 2892 431ZM3400 220C3400 86 3505 -11 3620 -11C3742 -11 3787 100 3787 119C3787 129 3779 131 3774 131C3765 131 3763 125 3761 117C3726 14 3636 14 3626 14C3576 14 3536 44 3513 81C3483 129 3483 195 3483 231L3762 231C3784 231 3787 231 3787 252C3787 351 3733 448 3608 448C3492 448 3400 345 3400 220ZM3484 252C3490 401 3574 426 3608 426C3711 426 3721 291 3721 252ZM3844 0C3883 1 3930 3 3958 3C3998 3 4045 3 4085 0L4085 31L4064 31C3990 31 3988 42 3988 78L3988 232C3988 331 4030 420 4106 420C4113 420 4115 420 4117 419C4114 418 4094 406 4094 380C4094 352 4115 337 4137 337C4155 337 4180 349 4180 381C4180 413 4149 442 4106 442C4033 442 3997 375 3983 332L3983 442L3844 431L3844 400C3914 400 3922 393 3922 344L3922 76C3922 31 3911 31 3844 31Z" stroke="rgb(0,0,0)" stroke-opacity="1" stroke-width="0" fill="rgb(0,0,0)" fill-opacity="1"></path></g></g></g></g><g><g><g><g transform="matrix(1,0,0,1,32.796875,234.09375)"><path transform="matrix(0.0135,0,0,-0.0135,0,0)" d="M28 0C63 3 142 3 180 3C219 3 298 3 333 0L333 31L307 31C228 31 225 42 225 78L225 605C225 641 228 652 307 652L333 652L333 683C298 680 219 680 181 680C142 680 63 680 28 683L28 652L54 652C133 652 136 641 136 605L136 78C136 42 133 31 54 31L28 31ZM394 13C394 -4 394 -11 405 -11C410 -11 411 -10 430 9C432 11 432 13 450 32C494 -10 539 -11 560 -11C675 -11 721 56 721 128C721 181 691 211 679 223C646 255 607 263 565 271C509 282 442 295 442 353C442 388 468 429 554 429C664 429 669 339 671 308C672 299 681 299 683 299C696 299 696 304 696 323L696 424C696 441 696 448 685 448C680 448 678 448 665 436C662 432 652 423 648 420C610 448 569 448 554 448C432 448 394 381 394 325C394 290 410 262 437 240C469 214 497 208 569 194C591 190 673 174 673 102C673 51 638 11 560 11C476 11 440 68 421 153C418 166 417 170 407 170C394 170 394 163 394 145ZM1144 2C1144 -15 1144 -22 1155 -22C1162 -22 1163 -20 1170 -9C1170 -8 1173 -5 1206 48C1237 14 1301 -22 1390 -22C1507 -22 1587 76 1587 186C1587 286 1521 368 1437 388L1309 419C1247 434 1208 488 1208 546C1208 616 1262 677 1340 677C1507 677 1529 513 1535 468C1536 462 1536 456 1547 456C1560 456 1560 461 1560 480L1560 681C1560 698 1560 705 1549 705C1542 705 1541 704 1534 692L1499 635C1469 664 1428 705 1339 705C1228 705 1144 617 1144 511C1144 428 1197 355 1275 328C1286 324 1337 312 1407 295C1434 288 1464 281 1492 244C1513 218 1523 185 1523 152C1523 81 1473 9 1389 9C1360 9 1284 14 1231 63C1173 117 1170 181 1169 217C1168 227 1160 227 1157 227C1144 227 1144 220 1144 202ZM1662 400L1747 400L1747 124C1747 1 1840 -11 1876 -11C1947 -11 1975 60 1975 124L1975 181L1950 181L1950 126C1950 52 1920 14 1883 14C1816 14 1816 105 1816 122L1816 400L1959 400L1959 431L1816 431L1816 615L1791 615C1790 533 1760 426 1662 422ZM2059 214C2059 85 2163 -11 2280 -11C2401 -11 2502 87 2502 214C2502 342 2402 448 2281 448C2156 448 2059 339 2059 214ZM2142 222C2142 261 2142 315 2166 359C2193 405 2240 426 2280 426C2324 426 2367 404 2393 361C2419 318 2419 260 2419 222C2419 186 2419 132 2397 88C2375 43 2331 14 2281 14C2238 14 2194 35 2167 81C2142 125 2142 186 2142 222ZM2559 -163L2559 -194C2593 -193 2645 -191 2671 -191C2698 -191 2749 -193 2784 -194L2784 -163C2717 -163 2706 -163 2706 -118L2706 50L2706 59C2711 43 2753 -11 2829 -11C2948 -11 3052 87 3052 216C3052 343 2955 442 2843 442C2765 442 2723 398 2703 376L2703 442L2559 431L2559 400C2630 400 2637 394 2637 350L2637 -118C2637 -163 2626 -163 2559 -163ZM2706 114L2706 337C2735 388 2784 417 2835 417C2908 417 2969 329 2969 216C2969 95 2899 11 2825 11C2785 11 2747 31 2720 72C2706 93 2706 94 2706 114ZM3475 342C3475 135 3637 -22 3823 -22C3986 -22 4084 117 4084 233C4084 243 4084 250 4071 250C4060 250 4060 244 4059 234C4051 91 3944 9 3835 9C3774 9 3578 43 3578 341C3578 640 3773 674 3834 674C3943 674 4032 583 4052 437C4054 423 4054 420 4068 420C4084 420 4084 423 4084 444L4084 681C4084 698 4084 705 4073 705C4069 705 4065 705 4057 693L4007 619C3970 655 3919 705 3823 705C3636 705 3475 546 3475 342ZM4169 214C4169 85 4273 -11 4390 -11C4511 -11 4612 87 4612 214C4612 342 4512 448 4391 448C4266 448 4169 339 4169 214ZM4252 222C4252 261 4252 315 4276 359C4303 405 4350 426 4390 426C4434 426 4477 404 4503 361C4529 318 4529 260 4529 222C4529 186 4529 132 4507 88C4485 43 4441 14 4391 14C4348 14 4304 35 4277 81C4252 125 4252 186 4252 222ZM4673 0C4708 1 4759 3 4786 3C4812 3 4864 1 4898 0L4898 31C4831 31 4820 31 4820 76L4820 260C4820 364 4891 420 4955 420C5018 420 5029 366 5029 309L5029 76C5029 31 5018 31 4951 31L4951 0C4986 1 5037 3 5064 3C5090 3 5142 1 5176 0L5176 31C5124 31 5099 31 5098 61L5098 252C5098 338 5098 369 5067 405C5053 422 5020 442 4962 442C4889 442 4842 399 4814 337L4814 442L4673 431L4673 400C4743 400 4751 393 4751 344L4751 76C4751 31 4740 31 4673 31ZM5230 215C5230 88 5328 -11 5442 -11C5506 -11 5551 23 5576 55L5576 -11L5723 0L5723 31C5653 31 5645 38 5645 87L5645 694L5501 683L5501 652C5571 652 5579 645 5579 596L5579 380C5550 416 5507 442 5453 442C5335 442 5230 344 5230 215ZM5313 214C5313 251 5315 311 5344 356C5365 387 5403 420 5457 420C5492 420 5534 405 5565 360C5576 343 5576 341 5576 323L5576 118C5576 100 5576 98 5565 81C5535 33 5490 11 5447 11C5402 11 5366 37 5342 75C5316 116 5313 173 5313 214ZM5826 616C5826 589 5848 563 5879 563C5907 563 5932 584 5932 616C5932 648 5907 669 5879 669C5848 669 5826 642 5826 616ZM5784 0C5816 1 5870 3 5894 3C5929 3 5964 1 5998 0L5998 31C5932 31 5928 36 5928 75L5928 442L5788 431L5788 400C5853 400 5862 394 5862 345L5862 76C5862 31 5851 31 5784 31ZM6047 400L6132 400L6132 124C6132 1 6225 -11 6261 -11C6332 -11 6360 60 6360 124L6360 181L6335 181L6335 126C6335 52 6305 14 6268 14C6201 14 6201 105 6201 122L6201 400L6344 400L6344 431L6201 431L6201 615L6176 615C6175 533 6145 426 6047 422ZM6491 616C6491 589 6513 563 6544 563C6572 563 6597 584 6597 616C6597 648 6572 669 6544 669C6513 669 6491 642 6491 616ZM6449 0C6481 1 6535 3 6559 3C6594 3 6629 1 6663 0L6663 31C6597 31 6593 36 6593 75L6593 442L6453 431L6453 400C6518 400 6527 394 6527 345L6527 76C6527 31 6516 31 6449 31ZM6721 214C6721 85 6825 -11 6942 -11C7063 -11 7164 87 7164 214C7164 342 7064 448 6943 448C6818 448 6721 339 6721 214ZM6804 222C6804 261 6804 315 6828 359C6855 405 6902 426 6942 426C6986 426 7029 404 7055 361C7081 318 7081 260 7081 222C7081 186 7081 132 7059 88C7037 43 6993 14 6943 14C6900 14 6856 35 6829 81C6804 125 6804 186 6804 222ZM7225 0C7260 1 7311 3 7338 3C7364 3 7416 1 7450 0L7450 31C7383 31 7372 31 7372 76L7372 260C7372 364 7443 420 7507 420C7570 420 7581 366 7581 309L7581 76C7581 31 7570 31 7503 31L7503 0C7538 1 7589 3 7616 3C7642 3 7694 1 7728 0L7728 31C7676 31 7651 31 7650 61L7650 252C7650 338 7650 369 7619 405C7605 422 7572 442 7514 442C7441 442 7394 399 7366 337L7366 442L7225 431L7225 400C7295 400 7303 393 7303 344L7303 76C7303 31 7292 31 7225 31Z" stroke="rgb(0,0,0)" stroke-opacity="1" stroke-width="0" fill="rgb(0,0,0)" fill-opacity="1"></path></g></g></g><g><g><g transform="matrix(1,0,0,1,57.15625,255.09375)"><path transform="matrix(0.0135,0,0,-0.0135,0,0)" d="M56 2C56 -15 56 -22 67 -22C74 -22 75 -20 82 -9C82 -8 85 -5 118 48C149 14 213 -22 302 -22C419 -22 499 76 499 186C499 286 433 368 349 388L221 419C159 434 120 488 120 546C120 616 174 677 252 677C419 677 441 513 447 468C448 462 448 456 459 456C472 456 472 461 472 480L472 681C472 698 472 705 461 705C454 705 453 704 446 692L411 635C381 664 340 705 251 705C140 705 56 617 56 511C56 428 109 355 187 328C198 324 249 312 319 295C346 288 376 281 404 244C425 218 435 185 435 152C435 81 385 9 301 9C272 9 196 14 143 63C85 117 82 181 81 217C80 227 72 227 69 227C56 227 56 220 56 202ZM597 95C597 14 694 -11 757 -11C823 -11 869 29 888 76C892 36 919 -6 966 -6C987 -6 1048 8 1048 89L1048 145L1023 145L1023 89C1023 31 998 25 987 25C954 25 950 70 950 75L950 275C950 317 950 356 914 393C875 432 825 448 777 448C695 448 626 401 626 335C626 305 646 288 672 288C700 288 718 308 718 334C718 346 713 379 667 380C694 415 743 426 775 426C824 426 881 387 881 298L881 261C830 258 760 255 697 225C622 191 597 139 597 95ZM674 96C674 151 716 234 881 240L881 140C881 45 809 11 764 11C715 11 674 46 674 96ZM1074 400L1159 400L1159 124C1159 1 1252 -11 1288 -11C1359 -11 1387 60 1387 124L1387 181L1362 181L1362 126C1362 52 1332 14 1295 14C1228 14 1228 105 1228 122L1228 400L1371 400L1371 431L1228 431L1228 615L1203 615C1202 533 1172 426 1074 422ZM1518 616C1518 589 1540 563 1571 563C1599 563 1624 584 1624 616C1624 648 1599 669 1571 669C1540 669 1518 642 1518 616ZM1476 0C1508 1 1562 3 1586 3C1621 3 1656 1 1690 0L1690 31C1624 31 1620 36 1620 75L1620 442L1480 431L1480 400C1545 400 1554 394 1554 345L1554 76C1554 31 1543 31 1476 31ZM1753 13C1753 -4 1753 -11 1764 -11C1769 -11 1770 -10 1789 9C1791 11 1791 13 1809 32C1853 -10 1898 -11 1919 -11C2034 -11 2080 56 2080 128C2080 181 2050 211 2038 223C2005 255 1966 263 1924 271C1868 282 1801 295 1801 353C1801 388 1827 429 1913 429C2023 429 2028 339 2030 308C2031 299 2040 299 2042 299C2055 299 2055 304 2055 323L2055 424C2055 441 2055 448 2044 448C2039 448 2037 448 2024 436C2021 432 2011 423 2007 420C1969 448 1928 448 1913 448C1791 448 1753 381 1753 325C1753 290 1769 262 1796 240C1828 214 1856 208 1928 194C1950 190 2032 174 2032 102C2032 51 1997 11 1919 11C1835 11 1799 68 1780 153C1777 166 1776 170 1766 170C1753 170 1753 163 1753 145ZM2141 0C2195 3 2227 3 2249 3C2287 3 2326 2 2364 0L2364 31L2356 31C2290 31 2286 39 2286 77L2286 400L2441 400C2492 400 2497 385 2497 336C2497 327 2496 318 2496 309L2496 75C2496 39 2488 31 2429 31L2419 31L2419 0C2473 3 2505 3 2527 3C2565 3 2603 2 2641 0L2641 31L2631 31C2580 31 2564 36 2564 72L2564 443L2419 432L2419 430L2283 430L2283 541C2283 648 2375 682 2431 682C2483 682 2511 656 2518 650C2490 649 2470 631 2470 604C2470 577 2492 558 2516 558C2540 558 2562 575 2562 606C2562 659 2509 705 2433 705C2340 705 2219 657 2219 542L2219 430L2141 430L2141 400L2219 400L2219 77C2219 39 2214 31 2149 31L2141 31ZM2697 220C2697 86 2802 -11 2917 -11C3039 -11 3084 100 3084 119C3084 129 3076 131 3071 131C3062 131 3060 125 3058 117C3023 14 2933 14 2923 14C2873 14 2833 44 2810 81C2780 129 2780 195 2780 231L3059 231C3081 231 3084 231 3084 252C3084 351 3030 448 2905 448C2789 448 2697 345 2697 220ZM2781 252C2787 401 2871 426 2905 426C3008 426 3018 291 3018 252ZM3147 215C3147 88 3245 -11 3359 -11C3423 -11 3468 23 3493 55L3493 -11L3640 0L3640 31C3570 31 3562 38 3562 87L3562 694L3418 683L3418 652C3488 652 3496 645 3496 596L3496 380C3467 416 3424 442 3370 442C3252 442 3147 344 3147 215ZM3230 214C3230 251 3232 311 3261 356C3282 387 3320 420 3374 420C3409 420 3451 405 3482 360C3493 343 3493 341 3493 323L3493 118C3493 100 3493 98 3482 81C3452 33 3407 11 3364 11C3319 11 3283 37 3259 75C3233 116 3230 173 3230 214ZM3724 572C3724 538 3747 524 3770 524C3798 524 3816 544 3816 570C3816 615 3774 615 3760 615C3791 668 3849 683 3891 683C4000 683 4000 615 4000 576C4000 517 3984 499 3966 481C3900 409 3878 317 3878 256L3878 211C3878 193 3878 187 3890 187C3903 187 3903 196 3903 214L3903 249C3903 375 4000 446 4035 472C4062 492 4083 528 4083 570C4083 628 4043 705 3894 705C3786 705 3724 637 3724 572ZM3837 53C3837 24 3861 0 3890 0C3919 0 3943 24 3943 53C3943 82 3919 106 3890 106C3861 106 3837 82 3837 53Z" stroke="rgb(0,0,0)" stroke-opacity="1" stroke-width="0" fill="rgb(0,0,0)" fill-opacity="1"></path></g></g></g></g><g><g><g><g transform="matrix(1,0,0,1,65.796875,195.09375)"><path transform="matrix(0.0135,0,0,-0.0135,0,0)" d="M33 0C68 1 117 3 150 3C183 3 232 1 267 0L267 31C164 31 164 78 164 105L164 625C169 620 170 619 174 613L582 13C591 1 592 0 599 0C613 0 613 7 613 26L613 578C613 605 613 652 716 652L716 683C681 682 632 680 599 680C566 680 517 682 482 683L482 652C585 652 585 605 585 578L585 151L232 670C223 682 222 683 203 683L33 683L33 652L62 652C77 652 97 651 112 650C135 647 136 646 136 627L136 105C136 78 136 31 33 31ZM778 214C778 85 882 -11 999 -11C1120 -11 1221 87 1221 214C1221 342 1121 448 1000 448C875 448 778 339 778 214ZM861 222C861 261 861 315 885 359C912 405 959 426 999 426C1043 426 1086 404 1112 361C1138 318 1138 260 1138 222C1138 186 1138 132 1116 88C1094 43 1050 14 1000 14C957 14 913 35 886 81C861 125 861 186 861 222Z" stroke="rgb(0,0,0)" stroke-opacity="1" stroke-width="0" fill="rgb(0,0,0)" fill-opacity="1"></path></g></g></g></g><g><g><g><g transform="matrix(1,0,0,1,6.9375,296.640625)"><path transform="matrix(0.0135,0,0,-0.0135,0,0)" d="M11 652L29 652C97 652 105 641 121 615L331 273L331 78C331 42 329 31 252 31L228 31L228 0C264 3 335 3 374 3C413 3 484 3 520 0L520 31L497 31C420 31 417 41 417 80L417 273L610 587C647 648 706 652 738 652L738 683C707 681 667 680 640 680C609 680 551 682 525 683L525 652C566 652 582 633 582 613C582 602 576 589 572 583L407 315L226 610C219 620 219 622 219 627C219 648 244 652 289 652L289 683C253 680 180 680 141 680C99 680 53 681 11 683ZM695 220C695 86 800 -11 915 -11C1037 -11 1082 100 1082 119C1082 129 1074 131 1069 131C1060 131 1058 125 1056 117C1021 14 931 14 921 14C871 14 831 44 808 81C778 129 778 195 778 231L1057 231C1079 231 1082 231 1082 252C1082 351 1028 448 903 448C787 448 695 345 695 220ZM779 252C785 401 869 426 903 426C1006 426 1016 291 1016 252ZM1144 13C1144 -4 1144 -11 1155 -11C1160 -11 1161 -10 1180 9C1182 11 1182 13 1200 32C1244 -10 1289 -11 1310 -11C1425 -11 1471 56 1471 128C1471 181 1441 211 1429 223C1396 255 1357 263 1315 271C1259 282 1192 295 1192 353C1192 388 1218 429 1304 429C1414 429 1419 339 1421 308C1422 299 1431 299 1433 299C1446 299 1446 304 1446 323L1446 424C1446 441 1446 448 1435 448C1430 448 1428 448 1415 436C1412 432 1402 423 1398 420C1360 448 1319 448 1304 448C1182 448 1144 381 1144 325C1144 290 1160 262 1187 240C1219 214 1247 208 1319 194C1341 190 1423 174 1423 102C1423 51 1388 11 1310 11C1226 11 1190 68 1171 153C1168 166 1167 170 1157 170C1144 170 1144 163 1144 145Z" stroke="rgb(0,0,0)" stroke-opacity="1" stroke-width="0" fill="rgb(0,0,0)" fill-opacity="1"></path></g></g></g></g><g><g><g><g transform="matrix(1,0,0,1,16.921875,327.671875)"><path transform="matrix(0.0135,0,0,-0.0135,0,0)" d="M33 0L610 0L652 258L627 258C602 104 579 31 407 31L274 31C227 31 225 38 225 71L225 338L315 338C412 338 423 306 423 221L448 221L448 486L423 486C423 400 412 369 315 369L225 369L225 609C225 642 227 649 274 649L403 649C556 649 583 594 599 455L624 455L596 680L33 680L33 649L57 649C134 649 136 638 136 602L136 78C136 42 134 31 57 31L33 31ZM712 0C747 1 798 3 825 3C851 3 903 1 937 0L937 31C870 31 859 31 859 76L859 260C859 364 930 420 994 420C1057 420 1068 366 1068 309L1068 76C1068 31 1057 31 990 31L990 0C1025 1 1076 3 1103 3C1129 3 1181 1 1215 0L1215 31C1163 31 1138 31 1137 61L1137 252C1137 338 1137 369 1106 405C1092 422 1059 442 1001 442C928 442 881 399 853 337L853 442L712 431L712 400C782 400 790 393 790 344L790 76C790 31 779 31 712 31ZM1269 215C1269 88 1367 -11 1481 -11C1545 -11 1590 23 1615 55L1615 -11L1762 0L1762 31C1692 31 1684 38 1684 87L1684 694L1540 683L1540 652C1610 652 1618 645 1618 596L1618 380C1589 416 1546 442 1492 442C1374 442 1269 344 1269 215ZM1352 214C1352 251 1354 311 1383 356C1404 387 1442 420 1496 420C1531 420 1573 405 1604 360C1615 343 1615 341 1615 323L1615 118C1615 100 1615 98 1604 81C1574 33 1529 11 1486 11C1441 11 1405 37 1381 75C1355 116 1352 173 1352 214Z" stroke="rgb(0,0,0)" stroke-opacity="1" stroke-width="0" fill="rgb(0,0,0)" fill-opacity="1"></path></g></g></g></g></svg>
</svg>
