<svg xmlns="http://www.w3.org/2000/svg" xmlns:xlink="http://www.w3.org/1999/xlink" x="0" y="0" width="805" height="373" style="
        width:805px;
        height:373px;
        background: transparent;
        fill: none;
">
        
        
        <svg xmlns="http://www.w3.org/2000/svg" class="role-diagram-draw-area"><g class="shapes-region" style="stroke: black; fill: none;"><g class="arrow-line"><path class="connection real" stroke-dasharray="" d="  M90,143.36 L90.13,95.1" style="stroke: rgb(0, 0, 0); stroke-opacity: 1; stroke-width: 1; fill: none; fill-opacity: 1;"/><g stroke="rgb(0,0,0)" stroke-opacity="1" transform="matrix(-0.0026179908874166364,0.9999965730559848,-0.9999965730559848,-0.0026179908874166364,90.13333129882812,93.10000038146973)" style="stroke: rgb(0, 0, 0); stroke-width: 1;"><path d=" M7.65,-2.3 Q3.47,-0.31 0,0 Q3.47,0.32 7.65,2.3"/></g></g><g class="arrow-line"><path class="connection real" stroke-dasharray="" d="  M90,274.52 L90.09,246 L90.16,225.86" style="stroke: rgb(0, 0, 0); stroke-opacity: 1; stroke-width: 1; fill: none; fill-opacity: 1;"/><g stroke="rgb(0,0,0)" stroke-opacity="1" transform="matrix(-0.0033161195010585234,0.9999945016606114,-0.9999945016606114,-0.0033161195010585234,90.16666666666671,223.85714285714286)" style="stroke: rgb(0, 0, 0); stroke-width: 1;"><path d=" M7.65,-2.3 Q3.47,-0.31 0,0 Q3.47,0.32 7.65,2.3"/></g></g><g class="composite-shape"><path class="real" d=" M254.31,125.64 C254.31,105.74 270.45,89.6 290.35,89.6 L527.97,89.6 C547.88,89.6 564.01,105.74 564.01,125.64 L564.01,233.76 C564.01,253.66 547.88,269.8 527.97,269.8 L290.35,269.8 C270.45,269.8 254.31,253.66 254.31,233.76 Z" style="stroke-width: 1; stroke: rgb(74, 74, 74); stroke-opacity: 1; fill: rgb(193, 225, 236); fill-opacity: 0.7;"/></g><g class="arrow-line"><path class="connection real" stroke-dasharray="" d="  M279.35,309.77 L279.71,240" style="stroke: rgb(0, 0, 0); stroke-opacity: 1; stroke-width: 1; fill: none; fill-opacity: 1;"/></g><g class="composite-shape"><path class="real" d=" M254.35,334.77 C254.35,320.96 265.54,309.77 279.35,309.77 C293.15,309.77 304.35,320.96 304.35,334.77 C304.35,348.57 293.15,359.77 279.35,359.77 C265.54,359.77 254.35,348.57 254.35,334.77 Z" style="stroke-width: 1; stroke: none; stroke-opacity: 1; fill: rgb(255, 204, 203); fill-opacity: 0.7;"/></g><g class="composite-shape"><path class="real" d=" M690.67,68.5 C690.67,54.69 701.86,43.5 715.67,43.5 C729.47,43.5 740.67,54.69 740.67,68.5 C740.67,82.31 729.47,93.5 715.67,93.5 C701.86,93.5 690.67,82.31 690.67,68.5 Z" style="stroke-width: 1; stroke: none; stroke-opacity: 1; fill: rgb(184, 224, 184); fill-opacity: 0.7;"/></g><g class="composite-shape"><path class="real" d=" M640.5,160.5 C640.5,151.66 647.66,144.5 656.5,144.5 L774.5,144.5 C783.34,144.5 790.5,151.66 790.5,160.5 L790.5,208.5 C790.5,217.34 783.34,224.5 774.5,224.5 L656.5,224.5 C647.66,224.5 640.5,217.34 640.5,208.5 Z" style="stroke-width: 1; stroke: rgb(0, 0, 0); stroke-opacity: 1; fill: rgb(193, 225, 236); fill-opacity: 0.7;"/></g><g class="arrow-line"><path class="connection real" stroke-dasharray="" d="  M715.5,144.17 L715.66,95.5" style="stroke: rgb(0, 0, 0); stroke-opacity: 1; stroke-width: 1; fill: none; fill-opacity: 1;"/><g stroke="rgb(0,0,0)" stroke-opacity="1" transform="matrix(-0.0033161195010585234,0.9999945016606114,-0.9999945016606114,-0.0033161195010585234,715.6666666666667,93.5)" style="stroke: rgb(0, 0, 0); stroke-width: 1;"><path d=" M7.65,-2.3 Q3.47,-0.31 0,0 Q3.47,0.32 7.65,2.3"/></g></g><g class="arrow-line"><path class="connection real" stroke-dasharray="" d="  M715.17,275 L715.33,226.33" style="stroke: rgb(0, 0, 0); stroke-opacity: 1; stroke-width: 1; fill: none; fill-opacity: 1;"/><g stroke="rgb(0,0,0)" stroke-opacity="1" transform="matrix(-0.0033161195010585234,0.9999945016606114,-0.9999945016606114,-0.0033161195010585234,715.3333333333335,224.33333333333337)" style="stroke: rgb(0, 0, 0); stroke-width: 1;"><path d=" M7.65,-2.3 Q3.47,-0.31 0,0 Q3.47,0.32 7.65,2.3"/></g></g><g class="composite-shape"><path class="real" d=" M65,299.86 C65,286.05 76.19,274.86 90,274.86 C103.81,274.86 115,286.05 115,299.86 C115,313.66 103.81,324.86 90,324.86 C76.19,324.86 65,313.66 65,299.86 Z" style="stroke-width: 1; stroke: none; stroke-opacity: 1; fill: rgb(255, 204, 203); fill-opacity: 0.7;"/></g><g class="composite-shape"><path class="real" d=" M690.17,300 C690.17,286.19 701.36,275 715.17,275 C728.97,275 740.17,286.19 740.17,300 C740.17,313.81 728.97,325 715.17,325 C701.36,325 690.17,313.81 690.17,300 Z" style="stroke-width: 1; stroke: none; stroke-opacity: 1; fill: rgb(255, 204, 203); fill-opacity: 0.7;"/></g><g class="composite-shape"><path class="real" d=" M485.3,26.95 C485.3,13.14 496.5,1.95 510.3,1.95 C524.11,1.95 535.3,13.14 535.3,26.95 C535.3,40.75 524.11,51.95 510.3,51.95 C496.5,51.95 485.3,40.75 485.3,26.95 Z" style="stroke-width: 1; stroke: none; stroke-opacity: 1; fill: rgb(184, 224, 184); fill-opacity: 0.7;"/></g><g class="composite-shape"><path class="real" d=" M65.06,68.06 C65.06,54.25 76.25,43.06 90.06,43.06 C103.86,43.06 115.06,54.25 115.06,68.06 C115.06,81.86 103.86,93.06 90.06,93.06 C76.25,93.06 65.06,81.86 65.06,68.06 Z" style="stroke-width: 1; stroke: none; stroke-opacity: 1; fill: rgb(184, 224, 184); fill-opacity: 0.7;"/></g><g class="composite-shape"><path class="real" d=" M359.96,119.96 C359.96,114.54 364.35,110.15 369.77,110.15 C375.19,110.15 379.58,114.54 379.58,119.96 C379.58,125.38 375.19,129.77 369.77,129.77 C364.35,129.77 359.96,125.38 359.96,119.96 Z" style="stroke-width: 1; stroke: rgb(0, 0, 0); stroke-opacity: 1; fill: rgb(255, 250, 205); fill-opacity: 1;"/></g><g class="arrow-line"><path class="connection real" stroke-dasharray="" d="  M169.87,199.97 L280,200 L279.71,240" style="stroke: rgb(0, 0, 0); stroke-opacity: 1; stroke-width: 1; fill: none; fill-opacity: 1;"/></g><g class="arrow-line"><path class="connection real" stroke-dasharray="" d="  M279.71,240 L422.8,240" style="stroke: rgb(0, 0, 0); stroke-opacity: 1; stroke-width: 1; fill: none; fill-opacity: 1;"/><g stroke="rgb(0,0,0)" stroke-opacity="1" transform="matrix(-1,1.2246467991473532e-16,-1.2246467991473532e-16,-1,424.7999877929687,240)" style="stroke: rgb(0, 0, 0); stroke-width: 1;"><path d=" M7.65,-2.3 Q3.47,-0.31 0,0 Q3.47,0.32 7.65,2.3"/></g></g><g class="arrow-line"><path class="connection real" stroke-dasharray="" d="  M170.2,170.23 L280.29,170.29 L280.57,120.57 L293.74,120.27" style="stroke: rgb(0, 0, 0); stroke-opacity: 1; stroke-width: 1; fill: none; fill-opacity: 1;"/><g stroke="rgb(0,0,0)" stroke-opacity="1" transform="matrix(-0.9997346290416701,0.023036308187605166,-0.023036308187605166,-0.9997346290416701,295.7428598555308,120.22222357855902)" style="stroke: rgb(0, 0, 0); stroke-width: 1;"><path d=" M7.65,-2.3 Q3.47,-0.31 0,0 Q3.47,0.32 7.65,2.3"/></g></g><g class="arrow-line"><path class="connection real" stroke-dasharray="" d="  M379.58,119.96 L530.22,120.22 L530.22,170.22 L637.9,170.25" style="stroke: rgb(0, 0, 0); stroke-opacity: 1; stroke-width: 1; fill: none; fill-opacity: 1;"/><g stroke="rgb(0,0,0)" stroke-opacity="1" transform="matrix(-0.9999999847691291,-0.0001745329243127594,0.0001745329243127594,-0.9999999847691291,639.8999938964844,170.25000000000003)" style="stroke: rgb(0, 0, 0); stroke-width: 1;"><path d=" M7.65,-2.3 Q3.47,-0.31 0,0 Q3.47,0.32 7.65,2.3"/></g></g><g class="arrow-line"><path class="connection real" stroke-dasharray="" d="  M489.97,199.83 L637.9,200.24" style="stroke: rgb(0, 0, 0); stroke-opacity: 1; stroke-width: 1; fill: none; fill-opacity: 1;"/><g stroke="rgb(0,0,0)" stroke-opacity="1" transform="matrix(-0.9999961008995606,-0.0027925231737426365,0.0027925231737426365,-0.9999961008995606,639.8999938964844,200.25)" style="stroke: rgb(0, 0, 0); stroke-width: 1;"><path d=" M7.65,-2.3 Q3.47,-0.31 0,0 Q3.47,0.32 7.65,2.3"/></g></g><g class="arrow-line"><path class="connection real" stroke-dasharray="" d="  M305.24,120.22 L357.96,119.97" style="stroke: rgb(0, 0, 0); stroke-opacity: 1; stroke-width: 1; fill: none; fill-opacity: 1;"/><g stroke="rgb(0,0,0)" stroke-opacity="1" transform="matrix(-0.9999880590209089,0.004886902454024603,-0.004886902454024603,-0.9999880590209089,359.9589320591517,119.9589276994978)" style="stroke: rgb(0, 0, 0); stroke-width: 1;"><path d=" M7.65,-2.3 Q3.47,-0.31 0,0 Q3.47,0.32 7.65,2.3"/></g></g><g class="arrow-line"><path class="connection real" stroke-dasharray="" d="  M305.4,239.75 L305.5,212.23" style="stroke: rgb(0, 0, 0); stroke-opacity: 1; stroke-width: 1; fill: none; fill-opacity: 1;"/><g stroke="rgb(0,0,0)" stroke-opacity="1" transform="matrix(-0.0036651832230565717,0.999993283193413,-0.999993283193413,-0.0036651832230565717,305.5069597069597,210.2258241758242)" style="stroke: rgb(0, 0, 0); stroke-width: 1;"><path d=" M7.65,-2.3 Q3.47,-0.31 0,0 Q3.47,0.32 7.65,2.3"/></g></g><g class="composite-shape"><path class="real" d=" M290.4,194.28 C290.4,192.13 292.15,190.38 294.3,190.38 L316.17,190.38 C318.32,190.38 320.07,192.13 320.07,194.28 L320.07,205.98 C320.07,208.14 318.32,209.88 316.17,209.88 L294.3,209.88 C292.15,209.88 290.4,208.14 290.4,205.98 Z" style="stroke-width: 1; stroke: rgb(0, 0, 0); stroke-opacity: 1; fill: rgb(255, 250, 205); fill-opacity: 1;"/></g><g class="arrow-line"><path class="connection real" stroke-dasharray="" d="  M344.49,240.51 L344.81,211.62" style="stroke: rgb(0, 0, 0); stroke-opacity: 1; stroke-width: 1; fill: none; fill-opacity: 1;"/><g stroke="rgb(0,0,0)" stroke-opacity="1" transform="matrix(-0.011344396795372184,0.9999356502602301,-0.9999356502602301,-0.011344396795372184,344.83516483516485,209.6164835164835)" style="stroke: rgb(0, 0, 0); stroke-width: 1;"><path d=" M7.65,-2.3 Q3.47,-0.31 0,0 Q3.47,0.32 7.65,2.3"/></g></g><g class="arrow-line"><path class="connection real" stroke-dasharray="" d="  M394.91,239.77 L394.86,211.43" style="stroke: rgb(0, 0, 0); stroke-opacity: 1; stroke-width: 1; fill: none; fill-opacity: 1;"/><g stroke="rgb(0,0,0)" stroke-opacity="1" transform="matrix(0.0019198609978001834,0.9999981570651764,-0.9999981570651764,0.0019198609978001834,394.8571428571429,209.42857142857142)" style="stroke: rgb(0, 0, 0); stroke-width: 1;"><path d=" M7.65,-2.3 Q3.47,-0.31 0,0 Q3.47,0.32 7.65,2.3"/></g></g><g class="arrow-line"><path class="connection real" stroke-dasharray="" d="  M369.39,165.58 L369.75,131.77" style="stroke: rgb(0, 0, 0); stroke-opacity: 1; stroke-width: 1; fill: none; fill-opacity: 1;"/><g stroke="rgb(0,0,0)" stroke-opacity="1" transform="matrix(-0.010820830182076567,0.9999414531032158,-0.9999414531032158,-0.010820830182076567,369.7714320591518,129.7714276994978)" style="stroke: rgb(0, 0, 0); stroke-width: 1;"><path d=" M7.65,-2.3 Q3.47,-0.31 0,0 Q3.47,0.32 7.65,2.3"/></g></g><g class="arrow-line"><path class="connection real" stroke-dasharray="" d="  M480.22,120.67 L480.15,148.5" style="stroke: rgb(0, 0, 0); stroke-opacity: 1; stroke-width: 1; fill: none; fill-opacity: 1;"/><g stroke="rgb(0,0,0)" stroke-opacity="1" transform="matrix(0.0024434585213446002,-0.9999970147507714,0.9999970147507714,0.0024434585213446002,480.15000000000003,150.49999999999994)" style="stroke: rgb(0, 0, 0); stroke-width: 1;"><path d=" M7.65,-2.3 Q3.47,-0.31 0,0 Q3.47,0.32 7.65,2.3"/></g></g><g class="arrow-line"><path class="connection real" stroke-dasharray="" d="  M510.54,199.96 L510.17,157.35 L510.67,107.08 L510.51,53.58" style="stroke: rgb(0, 0, 0); stroke-opacity: 1; stroke-width: 1; fill: none; fill-opacity: 1;"/><g stroke="rgb(0,0,0)" stroke-opacity="1" transform="matrix(0.002967055375001985,0.9999955982815133,-0.9999955982815133,0.002967055375001985,510.5045787545788,51.576923076923094)" style="stroke: rgb(0, 0, 0); stroke-width: 1;"><path d=" M7.65,-2.3 Q3.47,-0.31 0,0 Q3.47,0.32 7.65,2.3"/></g></g><g class="arrow-line"><path class="connection real" stroke-dasharray="" d="  M344.84,190.86 L344.9,175.08 L358.72,175.08" style="stroke: rgb(0, 0, 0); stroke-opacity: 1; stroke-width: 1; fill: none; fill-opacity: 1;"/><g stroke="rgb(0,0,0)" stroke-opacity="1" transform="matrix(-0.9999999847691291,0.0001745329243145815,-0.0001745329243145815,-0.9999999847691291,360.71905033172135,175.07936643570187)" style="stroke: rgb(0, 0, 0); stroke-width: 1;"><path d=" M7.65,-2.3 Q3.47,-0.31 0,0 Q3.47,0.32 7.65,2.3"/></g></g><g class="arrow-line"><path class="connection real" stroke-dasharray="" d="  M305.18,190.4 L305.24,131.72" style="stroke: rgb(0, 0, 0); stroke-opacity: 1; stroke-width: 1; fill: none; fill-opacity: 1;"/><g stroke="rgb(0,0,0)" stroke-opacity="1" transform="matrix(-0.0010471973597994673,0.9999994516886945,-0.9999994516886945,-0.0010471973597994673,305.2428598555308,129.72222357855904)" style="stroke: rgb(0, 0, 0); stroke-width: 1;"><path d=" M7.65,-2.3 Q3.47,-0.31 0,0 Q3.47,0.32 7.65,2.3"/></g></g><g class="composite-shape"><path class="real" d=" M460.26,154.51 C460.26,152.41 461.97,150.71 464.07,150.71 L496.15,150.71 C498.25,150.71 499.95,152.41 499.95,154.51 L499.95,165.92 C499.95,168.02 498.25,169.72 496.15,169.72 L464.07,169.72 C461.97,169.72 460.26,168.02 460.26,165.92 Z" style="stroke-width: 1; stroke: rgb(0, 0, 0); stroke-opacity: 1; fill: rgb(255, 250, 205); fill-opacity: 1;"/></g><g class="arrow-line"><path class="connection real" stroke-dasharray="" d="  M395.15,191.06 L395.15,175.21 L381.72,175.1" style="stroke: rgb(0, 0, 0); stroke-opacity: 1; stroke-width: 1; fill: none; fill-opacity: 1;"/><g stroke="rgb(0,0,0)" stroke-opacity="1" transform="matrix(0.9999649082784806,0.008377482414770735,-0.008377482414770735,0.9999649082784806,379.7190503317213,175.0793664357019)" style="stroke: rgb(0, 0, 0); stroke-width: 1;"><path d=" M7.65,-2.3 Q3.47,-0.31 0,0 Q3.47,0.32 7.65,2.3"/></g></g><g class="composite-shape"><path class="real" d=" M10.2,159.91 C10.2,151.01 17.41,143.8 26.31,143.8 L153.89,143.8 C162.79,143.8 170,151.01 170,159.91 L170,208.25 C170,217.14 162.79,224.36 153.89,224.36 L26.31,224.36 C17.41,224.36 10.2,217.14 10.2,208.25 Z" style="stroke-width: 1; stroke: rgb(0, 0, 0); stroke-opacity: 1; fill: rgb(193, 225, 236); fill-opacity: 0.7;"/></g><g class="composite-shape"><path class="real" d=" M330.11,194.28 C330.11,192.13 331.86,190.38 334.01,190.38 L355.88,190.38 C358.03,190.38 359.78,192.13 359.78,194.28 L359.78,205.98 C359.78,208.14 358.03,209.88 355.88,209.88 L334.01,209.88 C331.86,209.88 330.11,208.14 330.11,205.98 Z" style="stroke-width: 1; stroke: rgb(0, 0, 0); stroke-opacity: 1; fill: rgb(255, 250, 205); fill-opacity: 1;"/></g><g class="composite-shape"><path class="real" d=" M380.77,194.44 C380.77,192.31 382.49,190.58 384.63,190.58 L405.78,190.58 C407.91,190.58 409.64,192.31 409.64,194.44 L409.64,206.02 C409.64,208.16 407.91,209.88 405.78,209.88 L384.63,209.88 C382.49,209.88 380.77,208.16 380.77,206.02 Z" style="stroke-width: 1; stroke: rgb(0, 0, 0); stroke-opacity: 1; fill: rgb(255, 250, 205); fill-opacity: 1;"/></g><g class="composite-shape"><path class="real" d=" M359.84,175.7 C359.84,170.46 364.1,166.2 369.34,166.2 C374.59,166.2 378.84,170.46 378.84,175.7 C378.84,180.95 374.59,185.2 369.34,185.2 C364.1,185.2 359.84,180.95 359.84,175.7 Z" style="stroke-width: 1; stroke: rgb(0, 0, 0); stroke-opacity: 1; fill: rgb(255, 250, 205); fill-opacity: 1;"/></g><g class="composite-shape"><path class="real" d=" M470.97,199.83 C470.97,194.58 475.22,190.33 480.47,190.33 C485.72,190.33 489.97,194.58 489.97,199.83 C489.97,205.08 485.72,209.33 480.47,209.33 C475.22,209.33 470.97,205.08 470.97,199.83 Z" style="stroke-width: 1; stroke: rgb(0, 0, 0); stroke-opacity: 1; fill: rgb(255, 250, 205); fill-opacity: 1;"/></g><g class="arrow-line"><path class="connection real" stroke-dasharray="" d="  M480.25,169.88 L480.43,187.63" style="stroke: rgb(0, 0, 0); stroke-opacity: 1; stroke-width: 1; fill: none; fill-opacity: 1;"/><g stroke="rgb(0,0,0)" stroke-opacity="1" transform="matrix(-0.010122736774460241,-0.9999487637875227,0.9999487637875227,-0.010122736774460241,480.45001220703125,189.62499999999994)" style="stroke: rgb(0, 0, 0); stroke-width: 1;"><path d=" M7.65,-2.3 Q3.47,-0.31 0,0 Q3.47,0.32 7.65,2.3"/></g></g><g class="composite-shape"><path class="real" d=" M425.51,234.34 C425.51,232.2 427.24,230.48 429.37,230.48 L450.53,230.48 C452.66,230.48 454.39,232.2 454.39,234.34 L454.39,245.91 C454.39,248.05 452.66,249.77 450.53,249.77 L429.37,249.77 C427.24,249.77 425.51,248.05 425.51,245.91 Z" style="stroke-width: 1; stroke: rgb(0, 0, 0); stroke-opacity: 1; fill: rgb(255, 250, 205); fill-opacity: 1;"/></g><g class="arrow-line"><path class="connection real" stroke-dasharray="" d="  M440.2,230.2 L440.23,200.42 L468.23,200.35" style="stroke: rgb(0, 0, 0); stroke-opacity: 1; stroke-width: 1; fill: none; fill-opacity: 1;"/><g stroke="rgb(0,0,0)" stroke-opacity="1" transform="matrix(-0.9999974259839071,0.00226892608084099,-0.00226892608084099,-0.9999974259839071,470.23335774739576,200.35000610351562)" style="stroke: rgb(0, 0, 0); stroke-width: 1;"><path d=" M7.65,-2.3 Q3.47,-0.31 0,0 Q3.47,0.32 7.65,2.3"/></g></g><g class="composite-shape"><path class="real" d=" M295.84,120.69 C295.84,115.44 300.1,111.19 305.34,111.19 C310.59,111.19 314.84,115.44 314.84,120.69 C314.84,125.94 310.59,130.19 305.34,130.19 C300.1,130.19 295.84,125.94 295.84,120.69 Z" style="stroke-width: 1; stroke: rgb(0, 0, 0); stroke-opacity: 1; fill: rgb(255, 250, 205); fill-opacity: 1;"/></g><g/></g><g/><g/><g/></svg>
        <svg xmlns="http://www.w3.org/2000/svg" xmlns:xlink="http://www.w3.org/1999/xlink" width="803" height="371" style="width:803px;height:371px;font-family:Asana-Math, Asana;background:transparent;"><g><g><g><g><g><g><g transform="matrix(1,0,0,1,503.96875,29.765625)"><path transform="matrix(0.017,0,0,-0.017,0,0)" d="M-7 -180C-8 -187 -8 -193 -8 -198C-8 -241 29 -276 74 -276C180 -276 290 -152 349 33L490 473L479 482C450 471 427 465 405 463L370 331C358 284 323 211 290 162C255 111 206 67 184 67C172 67 163 90 164 115L180 322C182 353 184 391 184 419C184 464 177 482 160 482C147 482 133 475 85 442L3 386L14 368L64 398C69 401 80 410 89 410C103 410 111 391 111 358C111 357 111 351 110 343L93 100L92 60C92 18 110 -11 135 -11C172 -11 256 74 331 187L282 16C231 -161 181 -234 111 -234C76 -234 49 -207 49 -172C49 -167 50 -159 51 -150L41 -146Z" stroke="rgb(0,0,0)" stroke-opacity="1" stroke-width="0" fill="rgb(0,0,0)" fill-opacity="1"></path></g></g></g></g><svg x="503.96875" overflow="visible" y="10.765625" height="9" width="8.484375"><polyline points="0.00,8.06 4.24,5.23 8.48,8.06" style="fill:none;fill-opacity:1;stroke-width:1px;stroke:rgb(0,0,0);stroke-opacity:1;"></polyline></svg></g><g><g><g><g><g transform="matrix(1,0,0,1,512.953125,35.665625)"><path transform="matrix(0.0119,0,0,-0.0119,0,0)" d="M125 390L69 107C68 99 56 61 56 31C56 6 67 -9 86 -9C121 -9 156 11 234 74L265 99L255 117L210 86C181 66 161 56 150 56C141 56 136 64 136 76C136 102 150 183 179 328L192 390L299 390L310 440C272 436 238 434 200 434C216 528 227 577 245 631L234 646C214 634 187 622 156 610L131 440C87 419 61 408 43 403L41 390Z" stroke="rgb(0,0,0)" stroke-opacity="1" stroke-width="0" fill="rgb(0,0,0)" fill-opacity="1"></path></g></g></g></g></g></g></g><g><g><g><g transform="matrix(1,0,0,1,76.65625,302.6875)"><path transform="matrix(0.017,0,0,-0.017,0,0)" d="M9 1C24 -7 40 -11 52 -11C85 -11 124 18 155 65L231 182L242 113C255 28 278 -11 314 -11C336 -11 368 6 400 35L449 79L440 98C404 68 379 53 363 53C348 53 335 63 325 83C316 102 305 139 300 168L282 269L317 318C364 383 391 406 422 406C438 406 450 398 455 383L469 387L484 472C472 479 463 482 454 482C414 482 374 446 312 354L275 299L269 347C257 446 230 482 171 482C145 482 123 474 114 461L56 378L73 368C103 402 123 416 142 416C175 416 197 375 214 277L225 215L185 153C142 86 108 54 80 54C65 54 54 58 52 63L41 91L21 88C21 53 13 27 9 1Z" stroke="rgb(0,0,0)" stroke-opacity="1" stroke-width="0" fill="rgb(0,0,0)" fill-opacity="1"></path></g></g><g><g><g><g><g transform="matrix(1,0,0,1,85.640625,305.696875)"><path transform="matrix(0.0119,0,0,-0.0119,0,0)" d="M125 390L69 107C68 99 56 61 56 31C56 6 67 -9 86 -9C121 -9 156 11 234 74L265 99L255 117L210 86C181 66 161 56 150 56C141 56 136 64 136 76C136 102 150 183 179 328L192 390L299 390L310 440C272 436 238 434 200 434C216 528 227 577 245 631L234 646C214 634 187 622 156 610L131 440C87 419 61 408 43 403L41 390ZM887 243L887 299L383 299L383 243ZM1355 -3L1355 27L1303 30C1248 33 1238 44 1238 96L1238 700L997 598L1004 548L1154 614L1154 96C1154 44 1143 33 1089 30L1033 27L1033 -3C1187 0 1187 0 1198 0C1229 0 1339 -3 1355 -3Z" stroke="rgb(0,0,0)" stroke-opacity="1" stroke-width="0" fill="rgb(0,0,0)" fill-opacity="1"></path></g></g></g></g></g></g></g><g><g><g><g><g><g><g transform="matrix(1,0,0,1,703,74)"><path transform="matrix(0.017,0,0,-0.017,0,0)" d="M-7 -180C-8 -187 -8 -193 -8 -198C-8 -241 29 -276 74 -276C180 -276 290 -152 349 33L490 473L479 482C450 471 427 465 405 463L370 331C358 284 323 211 290 162C255 111 206 67 184 67C172 67 163 90 164 115L180 322C182 353 184 391 184 419C184 464 177 482 160 482C147 482 133 475 85 442L3 386L14 368L64 398C69 401 80 410 89 410C103 410 111 391 111 358C111 357 111 351 110 343L93 100L92 60C92 18 110 -11 135 -11C172 -11 256 74 331 187L282 16C231 -161 181 -234 111 -234C76 -234 49 -207 49 -172C49 -167 50 -159 51 -150L41 -146Z" stroke="rgb(0,0,0)" stroke-opacity="1" stroke-width="0" fill="rgb(0,0,0)" fill-opacity="1"></path></g></g></g></g><svg x="703" overflow="visible" y="55" height="9" width="8.484375"><polyline points="0.00,8.06 4.24,5.23 8.48,8.06" style="fill:none;fill-opacity:1;stroke-width:1px;stroke:rgb(0,0,0);stroke-opacity:1;"></polyline></svg></g><g><g><g><g><g transform="matrix(1,0,0,1,711.984375,79.9)"><path transform="matrix(0.0119,0,0,-0.0119,0,0)" d="M125 390L69 107C68 99 56 61 56 31C56 6 67 -9 86 -9C121 -9 156 11 234 74L265 99L255 117L210 86C181 66 161 56 150 56C141 56 136 64 136 76C136 102 150 183 179 328L192 390L299 390L310 440C272 436 238 434 200 434C216 528 227 577 245 631L234 646C214 634 187 622 156 610L131 440C87 419 61 408 43 403L41 390ZM936 241L936 300L696 300L696 538L637 538L637 300L397 300L397 241L637 241L637 0L696 0L696 241ZM1418 -3L1418 27L1366 30C1311 33 1301 44 1301 96L1301 700L1060 598L1067 548L1217 614L1217 96C1217 44 1206 33 1152 30L1096 27L1096 -3C1250 0 1250 0 1261 0C1292 0 1402 -3 1418 -3Z" stroke="rgb(0,0,0)" stroke-opacity="1" stroke-width="0" fill="rgb(0,0,0)" fill-opacity="1"></path></g></g></g></g></g></g></g><g><g><g><g transform="matrix(1,0,0,1,701.5,304.5)"><path transform="matrix(0.017,0,0,-0.017,0,0)" d="M9 1C24 -7 40 -11 52 -11C85 -11 124 18 155 65L231 182L242 113C255 28 278 -11 314 -11C336 -11 368 6 400 35L449 79L440 98C404 68 379 53 363 53C348 53 335 63 325 83C316 102 305 139 300 168L282 269L317 318C364 383 391 406 422 406C438 406 450 398 455 383L469 387L484 472C472 479 463 482 454 482C414 482 374 446 312 354L275 299L269 347C257 446 230 482 171 482C145 482 123 474 114 461L56 378L73 368C103 402 123 416 142 416C175 416 197 375 214 277L225 215L185 153C142 86 108 54 80 54C65 54 54 58 52 63L41 91L21 88C21 53 13 27 9 1Z" stroke="rgb(0,0,0)" stroke-opacity="1" stroke-width="0" fill="rgb(0,0,0)" fill-opacity="1"></path></g></g><g><g><g><g><g transform="matrix(1,0,0,1,710.484375,307.509375)"><path transform="matrix(0.0119,0,0,-0.0119,0,0)" d="M125 390L69 107C68 99 56 61 56 31C56 6 67 -9 86 -9C121 -9 156 11 234 74L265 99L255 117L210 86C181 66 161 56 150 56C141 56 136 64 136 76C136 102 150 183 179 328L192 390L299 390L310 440C272 436 238 434 200 434C216 528 227 577 245 631L234 646C214 634 187 622 156 610L131 440C87 419 61 408 43 403L41 390ZM936 241L936 300L696 300L696 538L637 538L637 300L397 300L397 241L637 241L637 0L696 0L696 241ZM1418 -3L1418 27L1366 30C1311 33 1301 44 1301 96L1301 700L1060 598L1067 548L1217 614L1217 96C1217 44 1206 33 1152 30L1096 27L1096 -3C1250 0 1250 0 1261 0C1292 0 1402 -3 1418 -3Z" stroke="rgb(0,0,0)" stroke-opacity="1" stroke-width="0" fill="rgb(0,0,0)" fill-opacity="1"></path></g></g></g></g></g></g></g><g><g><g><g transform="matrix(1,0,0,1,197.59375,160.171875)"><path transform="matrix(0.017,0,0,-0.017,0,0)" d="M342 330L365 330C373 395 380 432 389 458C365 473 330 482 293 482C248 483 175 463 118 400C64 352 25 241 25 136C25 40 67 -11 147 -11C201 -11 249 9 304 54L354 95L346 115L331 105C259 57 221 40 186 40C130 40 101 80 101 159C101 267 136 371 185 409C206 425 230 433 261 433C306 433 342 414 342 390Z" stroke="rgb(0,0,0)" stroke-opacity="1" stroke-width="0" fill="rgb(0,0,0)" fill-opacity="1"></path></g></g><g><g><g><g><g transform="matrix(1,0,0,1,205,163.18125)"><path transform="matrix(0.0119,0,0,-0.0119,0,0)" d="M125 390L69 107C68 99 56 61 56 31C56 6 67 -9 86 -9C121 -9 156 11 234 74L265 99L255 117L210 86C181 66 161 56 150 56C141 56 136 64 136 76C136 102 150 183 179 328L192 390L299 390L310 440C272 436 238 434 200 434C216 528 227 577 245 631L234 646C214 634 187 622 156 610L131 440C87 419 61 408 43 403L41 390ZM887 243L887 299L383 299L383 243ZM1355 -3L1355 27L1303 30C1248 33 1238 44 1238 96L1238 700L997 598L1004 548L1154 614L1154 96C1154 44 1143 33 1089 30L1033 27L1033 -3C1187 0 1187 0 1198 0C1229 0 1339 -3 1355 -3Z" stroke="rgb(0,0,0)" stroke-opacity="1" stroke-width="0" fill="rgb(0,0,0)" fill-opacity="1"></path></g></g></g></g></g></g></g><g><g><g><g transform="matrix(1,0,0,1,273.59375,339.828125)"><path transform="matrix(0.017,0,0,-0.017,0,0)" d="M9 1C24 -7 40 -11 52 -11C85 -11 124 18 155 65L231 182L242 113C255 28 278 -11 314 -11C336 -11 368 6 400 35L449 79L440 98C404 68 379 53 363 53C348 53 335 63 325 83C316 102 305 139 300 168L282 269L317 318C364 383 391 406 422 406C438 406 450 398 455 383L469 387L484 472C472 479 463 482 454 482C414 482 374 446 312 354L275 299L269 347C257 446 230 482 171 482C145 482 123 474 114 461L56 378L73 368C103 402 123 416 142 416C175 416 197 375 214 277L225 215L185 153C142 86 108 54 80 54C65 54 54 58 52 63L41 91L21 88C21 53 13 27 9 1Z" stroke="rgb(0,0,0)" stroke-opacity="1" stroke-width="0" fill="rgb(0,0,0)" fill-opacity="1"></path></g></g><g><g><g><g><g transform="matrix(1,0,0,1,282.578125,342.8375)"><path transform="matrix(0.0119,0,0,-0.0119,0,0)" d="M125 390L69 107C68 99 56 61 56 31C56 6 67 -9 86 -9C121 -9 156 11 234 74L265 99L255 117L210 86C181 66 161 56 150 56C141 56 136 64 136 76C136 102 150 183 179 328L192 390L299 390L310 440C272 436 238 434 200 434C216 528 227 577 245 631L234 646C214 634 187 622 156 610L131 440C87 419 61 408 43 403L41 390Z" stroke="rgb(0,0,0)" stroke-opacity="1" stroke-width="0" fill="rgb(0,0,0)" fill-opacity="1"></path></g></g></g></g></g></g></g><g><g><g><g><g><g><g transform="matrix(1,0,0,1,76.9375,71.21875)"><path transform="matrix(0.017,0,0,-0.017,0,0)" d="M-7 -180C-8 -187 -8 -193 -8 -198C-8 -241 29 -276 74 -276C180 -276 290 -152 349 33L490 473L479 482C450 471 427 465 405 463L370 331C358 284 323 211 290 162C255 111 206 67 184 67C172 67 163 90 164 115L180 322C182 353 184 391 184 419C184 464 177 482 160 482C147 482 133 475 85 442L3 386L14 368L64 398C69 401 80 410 89 410C103 410 111 391 111 358C111 357 111 351 110 343L93 100L92 60C92 18 110 -11 135 -11C172 -11 256 74 331 187L282 16C231 -161 181 -234 111 -234C76 -234 49 -207 49 -172C49 -167 50 -159 51 -150L41 -146Z" stroke="rgb(0,0,0)" stroke-opacity="1" stroke-width="0" fill="rgb(0,0,0)" fill-opacity="1"></path></g></g></g></g><svg x="76.9375" overflow="visible" y="52.21875" height="9" width="8.484375"><polyline points="0.00,8.06 4.24,5.23 8.48,8.06" style="fill:none;fill-opacity:1;stroke-width:1px;stroke:rgb(0,0,0);stroke-opacity:1;"></polyline></svg></g><g><g><g><g><g transform="matrix(1,0,0,1,85.921875,77.11875)"><path transform="matrix(0.0119,0,0,-0.0119,0,0)" d="M125 390L69 107C68 99 56 61 56 31C56 6 67 -9 86 -9C121 -9 156 11 234 74L265 99L255 117L210 86C181 66 161 56 150 56C141 56 136 64 136 76C136 102 150 183 179 328L192 390L299 390L310 440C272 436 238 434 200 434C216 528 227 577 245 631L234 646C214 634 187 622 156 610L131 440C87 419 61 408 43 403L41 390ZM887 243L887 299L383 299L383 243ZM1355 -3L1355 27L1303 30C1248 33 1238 44 1238 96L1238 700L997 598L1004 548L1154 614L1154 96C1154 44 1143 33 1089 30L1033 27L1033 -3C1187 0 1187 0 1198 0C1229 0 1339 -3 1355 -3Z" stroke="rgb(0,0,0)" stroke-opacity="1" stroke-width="0" fill="rgb(0,0,0)" fill-opacity="1"></path></g></g></g></g></g></g></g><g><g><g><g transform="matrix(1,0,0,1,196.265625,190.265625)"><path transform="matrix(0.017,0,0,-0.017,0,0)" d="M236 722L224 733C179 711 138 697 64 691L60 670L108 670C126 670 142 667 142 647C142 641 142 632 140 622L98 388C78 272 36 80 10 2L17 -9L86 7C94 64 108 164 148 236C193 317 296 414 338 414C349 414 360 407 360 393C360 375 355 342 345 303L294 107C288 85 281 55 281 31C281 6 291 -9 312 -9C344 -9 412 41 471 85L461 103L435 86C412 71 386 56 374 56C367 56 361 65 361 76C361 88 364 101 368 116L432 372C438 398 443 423 443 447C443 464 437 482 411 482C376 482 299 437 231 374C198 343 172 308 144 273L140 275Z" stroke="rgb(0,0,0)" stroke-opacity="1" stroke-width="0" fill="rgb(0,0,0)" fill-opacity="1"></path></g></g><g><g><g><g><g transform="matrix(1,0,0,1,205.25,193.275)"><path transform="matrix(0.0119,0,0,-0.0119,0,0)" d="M125 390L69 107C68 99 56 61 56 31C56 6 67 -9 86 -9C121 -9 156 11 234 74L265 99L255 117L210 86C181 66 161 56 150 56C141 56 136 64 136 76C136 102 150 183 179 328L192 390L299 390L310 440C272 436 238 434 200 434C216 528 227 577 245 631L234 646C214 634 187 622 156 610L131 440C87 419 61 408 43 403L41 390ZM887 243L887 299L383 299L383 243ZM1355 -3L1355 27L1303 30C1248 33 1238 44 1238 96L1238 700L997 598L1004 548L1154 614L1154 96C1154 44 1143 33 1089 30L1033 27L1033 -3C1187 0 1187 0 1198 0C1229 0 1339 -3 1355 -3Z" stroke="rgb(0,0,0)" stroke-opacity="1" stroke-width="0" fill="rgb(0,0,0)" fill-opacity="1"></path></g></g></g></g></g></g></g><g><g><g><g transform="matrix(1,0,0,1,593.6875,190.390625)"><path transform="matrix(0.017,0,0,-0.017,0,0)" d="M236 722L224 733C179 711 138 697 64 691L60 670L108 670C126 670 142 667 142 647C142 641 142 632 140 622L98 388C78 272 36 80 10 2L17 -9L86 7C94 64 108 164 148 236C193 317 296 414 338 414C349 414 360 407 360 393C360 375 355 342 345 303L294 107C288 85 281 55 281 31C281 6 291 -9 312 -9C344 -9 412 41 471 85L461 103L435 86C412 71 386 56 374 56C367 56 361 65 361 76C361 88 364 101 368 116L432 372C438 398 443 423 443 447C443 464 437 482 411 482C376 482 299 437 231 374C198 343 172 308 144 273L140 275Z" stroke="rgb(0,0,0)" stroke-opacity="1" stroke-width="0" fill="rgb(0,0,0)" fill-opacity="1"></path></g></g><g><g><g><g><g transform="matrix(1,0,0,1,602.671875,193.4)"><path transform="matrix(0.0119,0,0,-0.0119,0,0)" d="M125 390L69 107C68 99 56 61 56 31C56 6 67 -9 86 -9C121 -9 156 11 234 74L265 99L255 117L210 86C181 66 161 56 150 56C141 56 136 64 136 76C136 102 150 183 179 328L192 390L299 390L310 440C272 436 238 434 200 434C216 528 227 577 245 631L234 646C214 634 187 622 156 610L131 440C87 419 61 408 43 403L41 390Z" stroke="rgb(0,0,0)" stroke-opacity="1" stroke-width="0" fill="rgb(0,0,0)" fill-opacity="1"></path></g></g></g></g></g></g></g><g><g><g><g transform="matrix(1,0,0,1,594.390625,159.9375)"><path transform="matrix(0.017,0,0,-0.017,0,0)" d="M342 330L365 330C373 395 380 432 389 458C365 473 330 482 293 482C248 483 175 463 118 400C64 352 25 241 25 136C25 40 67 -11 147 -11C201 -11 249 9 304 54L354 95L346 115L331 105C259 57 221 40 186 40C130 40 101 80 101 159C101 267 136 371 185 409C206 425 230 433 261 433C306 433 342 414 342 390Z" stroke="rgb(0,0,0)" stroke-opacity="1" stroke-width="0" fill="rgb(0,0,0)" fill-opacity="1"></path></g></g><g><g><g><g><g transform="matrix(1,0,0,1,601.796875,162.946875)"><path transform="matrix(0.0119,0,0,-0.0119,0,0)" d="M125 390L69 107C68 99 56 61 56 31C56 6 67 -9 86 -9C121 -9 156 11 234 74L265 99L255 117L210 86C181 66 161 56 150 56C141 56 136 64 136 76C136 102 150 183 179 328L192 390L299 390L310 440C272 436 238 434 200 434C216 528 227 577 245 631L234 646C214 634 187 622 156 610L131 440C87 419 61 408 43 403L41 390Z" stroke="rgb(0,0,0)" stroke-opacity="1" stroke-width="0" fill="rgb(0,0,0)" fill-opacity="1"></path></g></g></g></g></g></g></g><g><g><g><g transform="matrix(1,0,0,1,339.2265625,203.9828125)"><path transform="matrix(0.0136,0,0,-0.0136,0,0)" d="M536 689C497 691 452 692 407 692C350 692 258 689 191 689C134 689 77 691 22 692L22 662L70 659C113 657 121 651 121 569L121 120C121 40 113 32 70 30L22 27L22 -3C74 -1 121 0 170 0C216 0 263 -1 315 -3L315 27L267 30C224 32 216 38 216 120L216 642C244 649 273 650 300 650C344 650 423 649 476 629C484 626 485 615 485 602L485 537L520 537C520 588 525 645 536 689Z" stroke="rgb(0,0,0)" stroke-opacity="1" stroke-width="0" fill="rgb(0,0,0)" fill-opacity="1"></path></g></g><g><g><g><g><g transform="matrix(1,0,0,1,347.1953125,207.3871875)"><path transform="matrix(0.009519999999999999,0,0,-0.009519999999999999,0,0)" d="M34 388L41 368L73 389C110 412 113 414 120 414C130 414 138 404 138 391C138 384 134 361 130 347L64 107C56 76 51 49 51 30C51 6 62 -9 81 -9C107 -9 143 12 241 85L231 103L205 86C176 67 153 56 144 56C137 56 131 66 131 76C131 86 133 95 138 116L215 420C219 437 221 448 221 456C221 473 212 482 196 482C174 482 137 461 62 408ZM228 712C199 712 170 679 170 645C170 620 185 604 209 604C240 604 264 633 264 671C264 695 249 712 228 712Z" stroke="rgb(0,0,0)" stroke-opacity="1" stroke-width="0" fill="rgb(0,0,0)" fill-opacity="1"></path></g></g></g></g></g></g></g><g><g><g><g transform="matrix(1,0,0,1,389.390625,203.6703125)"><path transform="matrix(0.0136,0,0,-0.0136,0,0)" d="M536 689C497 691 452 692 407 692C350 692 258 689 191 689C134 689 77 691 22 692L22 662L70 659C113 657 121 651 121 569L121 120C121 40 113 32 70 30L22 27L22 -3C74 -1 121 0 170 0C216 0 263 -1 315 -3L315 27L267 30C224 32 216 38 216 120L216 642C244 649 273 650 300 650C344 650 423 649 476 629C484 626 485 615 485 602L485 537L520 537C520 588 525 645 536 689Z" stroke="rgb(0,0,0)" stroke-opacity="1" stroke-width="0" fill="rgb(0,0,0)" fill-opacity="1"></path></g></g><g><g><g><g><g transform="matrix(1,0,0,1,397.359375,207.0746875)"><path transform="matrix(0.009519999999999999,0,0,-0.009519999999999999,0,0)" d="M342 330L365 330C373 395 380 432 389 458C365 473 330 482 293 482C248 483 175 463 118 400C64 352 25 241 25 136C25 40 67 -11 147 -11C201 -11 249 9 304 54L354 95L346 115L331 105C259 57 221 40 186 40C130 40 101 80 101 159C101 267 136 371 185 409C206 425 230 433 261 433C306 433 342 414 342 390Z" stroke="rgb(0,0,0)" stroke-opacity="1" stroke-width="0" fill="rgb(0,0,0)" fill-opacity="1"></path></g></g></g></g></g></g></g><g><g><g><g transform="matrix(1,0,0,1,298.640625,202.7328125)"><path transform="matrix(0.0136,0,0,-0.0136,0,0)" d="M536 689C497 691 452 692 407 692C350 692 258 689 191 689C134 689 77 691 22 692L22 662L70 659C113 657 121 651 121 569L121 120C121 40 113 32 70 30L22 27L22 -3C74 -1 121 0 170 0C216 0 263 -1 315 -3L315 27L267 30C224 32 216 38 216 120L216 642C244 649 273 650 300 650C344 650 423 649 476 629C484 626 485 615 485 602L485 537L520 537C520 588 525 645 536 689Z" stroke="rgb(0,0,0)" stroke-opacity="1" stroke-width="0" fill="rgb(0,0,0)" fill-opacity="1"></path></g></g><g><g><g><g><g transform="matrix(1,0,0,1,306.609375,206.1371875)"><path transform="matrix(0.009519999999999999,0,0,-0.009519999999999999,0,0)" d="M345 437L329 437L350 549C366 635 394 673 440 673C470 673 497 658 512 634L522 638C527 654 537 685 545 705L550 720C534 727 503 733 480 733C469 733 453 730 445 726C421 715 339 654 316 630C294 608 282 578 271 521L256 442C215 422 195 414 170 405L165 383L246 383L237 327C207 132 170 -54 148 -123C130 -182 100 -213 64 -213C41 -213 30 -206 12 -184L-2 -188C-6 -211 -20 -259 -25 -268C-16 -273 -1 -276 10 -276C51 -276 105 -245 144 -198C215 -114 235 -18 319 383L423 383C427 402 434 425 440 439L436 446C407 439 408 437 345 437Z" stroke="rgb(0,0,0)" stroke-opacity="1" stroke-width="0" fill="rgb(0,0,0)" fill-opacity="1"></path></g></g></g></g></g></g></g><g><g><g><g transform="matrix(1,0,0,1,364.734375,124.95625)"><path transform="matrix(0.015300000000000001,0,0,-0.015300000000000001,0,0)" d="M604 241L604 300L364 300L364 538L305 538L305 300L65 300L65 241L305 241L305 0L364 0L364 241Z" stroke="rgb(0,0,0)" stroke-opacity="1" stroke-width="0" fill="rgb(0,0,0)" fill-opacity="1"></path></g></g></g></g><g><g><g><g><g transform="matrix(1,0,0,1,465.8046875,164.053125)"><path transform="matrix(0.0136,0,0,-0.0136,0,0)" d="M98 382L98 94C98 20 131 -12 208 -12C231 -12 255 -7 261 0L309 53L296 70C271 56 256 51 237 51C198 51 182 71 182 120L182 382L310 382L319 436L182 430L182 468C182 510 185 546 193 610L181 621C157 606 127 593 96 583C99 553 100 534 100 504L100 434L22 399L22 378ZM649 82L644 -3C709 0 709 0 722 0C727 0 752 -1 796 -3L796 27L757 29C733 30 729 38 729 87L729 270C729 416 687 469 571 469C528 469 488 458 450 435L397 403L397 338L423 331L436 362C457 409 467 416 513 416C607 416 646 379 649 288L550 270C414 245 357 198 357 111C357 33 404 -12 483 -12C501 -12 518 -9 525 -4ZM649 124C620 83 557 45 518 45C478 45 443 82 443 125C443 162 463 197 493 216C518 231 573 245 649 256ZM1234 -3C1295 0 1296 0 1313 0C1327 0 1327 0 1396 -3L1396 27L1355 30C1321 32 1318 38 1318 102L1318 295C1318 412 1263 469 1151 469C1114 469 1093 462 1072 444L996 378L996 465L987 469C936 448 884 434 831 428L831 400L868 400C908 400 912 393 912 327L912 102C912 39 909 32 875 30L830 27L830 -3C898 -1 925 0 954 0C983 0 1010 -1 1078 -3L1078 27L1033 30C999 32 996 39 996 102L996 314C996 359 1062 408 1123 408C1190 408 1234 358 1234 281ZM1412 661L1468 661C1486 661 1493 650 1493 620L1493 102C1493 39 1490 32 1456 30L1411 27L1411 -3C1479 -1 1506 0 1535 0C1564 0 1591 -1 1659 -3L1659 27L1614 30C1580 32 1577 39 1577 102L1577 314C1577 359 1643 408 1704 408C1771 408 1815 358 1815 281L1815 -3C1876 0 1877 0 1894 0C1908 0 1908 0 1977 -3L1977 27L1936 30C1902 32 1899 38 1899 102L1899 295C1899 412 1813 470 1728 470C1666 470 1605 439 1577 378L1577 718L1568 726C1524 709 1491 701 1412 689Z" stroke="rgb(0,0,0)" stroke-opacity="1" stroke-width="0" fill="rgb(0,0,0)" fill-opacity="1"></path></g></g></g></g></g><g><g><g><g transform="matrix(1,0,0,1,364.1640625,180.425)"><path transform="matrix(0.015300000000000001,0,0,-0.015300000000000001,0,0)" d="M652 271C652 445 509 587 335 587C160 587 18 445 18 271C18 96 160 -46 335 -46C509 -46 652 96 652 271ZM604 271C604 122 482 1 335 1C186 1 65 122 65 271C65 419 186 540 335 540C482 540 604 419 604 271ZM393 271C393 301 365 329 334 329C304 329 277 301 277 271C277 241 303 213 334 213C366 213 393 241 393 271Z" stroke="rgb(0,0,0)" stroke-opacity="1" stroke-width="0" fill="rgb(0,0,0)" fill-opacity="1"></path></g></g></g></g><g><g><g><g transform="matrix(1,0,0,1,475.2890625,204.440625)"><path transform="matrix(0.015300000000000001,0,0,-0.015300000000000001,0,0)" d="M652 271C652 445 509 587 335 587C160 587 18 445 18 271C18 96 160 -46 335 -46C509 -46 652 96 652 271ZM604 271C604 122 482 1 335 1C186 1 65 122 65 271C65 419 186 540 335 540C482 540 604 419 604 271ZM393 271C393 301 365 329 334 329C304 329 277 301 277 271C277 241 303 213 334 213C366 213 393 241 393 271Z" stroke="rgb(0,0,0)" stroke-opacity="1" stroke-width="0" fill="rgb(0,0,0)" fill-opacity="1"></path></g></g></g></g><g><g><g><g transform="matrix(1,0,0,1,433.671875,243.4203125)"><path transform="matrix(0.0136,0,0,-0.0136,0,0)" d="M536 689C497 691 452 692 407 692C350 692 258 689 191 689C134 689 77 691 22 692L22 662L70 659C113 657 121 651 121 569L121 120C121 40 113 32 70 30L22 27L22 -3C74 -1 121 0 170 0C216 0 263 -1 315 -3L315 27L267 30C224 32 216 38 216 120L216 642C244 649 273 650 300 650C344 650 423 649 476 629C484 626 485 615 485 602L485 537L520 537C520 588 525 645 536 689Z" stroke="rgb(0,0,0)" stroke-opacity="1" stroke-width="0" fill="rgb(0,0,0)" fill-opacity="1"></path></g></g><g><g><g><g><g transform="matrix(1,0,0,1,441.640625,246.8246875)"><path transform="matrix(0.009519999999999999,0,0,-0.009519999999999999,0,0)" d="M17 152C17 46 62 -11 145 -11C200 -11 260 15 305 57C367 116 411 230 411 331C411 425 361 482 278 482C174 482 17 382 17 152ZM241 444C302 444 335 399 335 315C335 219 304 113 260 60C242 39 216 27 185 27C127 27 93 72 93 151C93 264 132 387 181 427C194 438 217 444 241 444Z" stroke="rgb(0,0,0)" stroke-opacity="1" stroke-width="0" fill="rgb(0,0,0)" fill-opacity="1"></path></g></g></g></g></g></g></g><g><g><g><g transform="matrix(1,0,0,1,300.1640625,125.425)"><path transform="matrix(0.015300000000000001,0,0,-0.015300000000000001,0,0)" d="M652 271C652 445 509 587 335 587C160 587 18 445 18 271C18 96 160 -46 335 -46C509 -46 652 96 652 271ZM604 271C604 122 482 1 335 1C186 1 65 122 65 271C65 419 186 540 335 540C482 540 604 419 604 271ZM393 271C393 301 365 329 334 329C304 329 277 301 277 271C277 241 303 213 334 213C366 213 393 241 393 271Z" stroke="rgb(0,0,0)" stroke-opacity="1" stroke-width="0" fill="rgb(0,0,0)" fill-opacity="1"></path></g></g></g></g></svg>
</svg>
